<svg xmlns="http://www.w3.org/2000/svg" xmlns:xlink="http://www.w3.org/1999/xlink" xmlns:lucid="lucid" width="1777.47" height="1111.67"><g transform="translate(0 0)" lucid:page-tab-id="JuS4.T-5WZVw"><path d="M0 0h1760v1360H0z" fill="#fff"/><path d="M149.04 282a30 30 0 0 1 30-30H540.2a30 30 0 0 1 30 30v288a30 30 0 0 1-30 30H179.03a30 30 0 0 1-30-30z" stroke="#474747" fill-opacity="0"/><path d="M211 240.24v-5.9c0-7.25-5.87-13.13-13.1-13.13-7.25 0-13.13 5.9-13.13 13.14v5.9h6.64v-5.9c0-3.58 2.92-6.5 6.5-6.5 3.56 0 6.47 2.92 6.47 6.5v5.9H211z" fill="#876a22"/><path d="M211 240.26h5.44v20.83h-37.4v-20.84h5.72v-7.1c0-7.28 5.87-13.16 13.13-13.16 7.24 0 13.1 5.88 13.1 13.15v7.1zm-6.64 0v-7.1c0-3.6-2.88-6.5-6.47-6.5-3.6 0-6.48 2.9-6.48 6.5v7.1h12.94z" fill="#daa835"/><path d="M179.04 261.1h37.4v.9h-37.4z" fill="#876a22"/><use xlink:href="#a" transform="matrix(1,0,0,1,149.03846153846152,570) translate(142.54320987654322 11.11111111111111)"/><use xlink:href="#b" transform="matrix(1,0,0,1,149.03846153846152,570) translate(209.08641975308643 11.11111111111111)"/><path d="M135 217.4a6 6 0 0 1 6-6h437.23a6 6 0 0 1 6 6V1074a6 6 0 0 1-6 6H141a6 6 0 0 1-6-6z" fill="#fff" fill-opacity="0"/><path d="M138.7 211.87l.45-.18.9-.23.95-.07h2m3.96 0h3.98m3.97 0h4m3.96 0h3.98m3.97 0h4m3.96 0h3.98m3.97 0h4m3.96 0h3.97m3.98 0h4m3.96 0h3.97m3.98 0h3.98m3.98 0h3.97m3.98 0h3.98m3.98 0h3.97m3.98 0h3.98m3.98 0h3.97m3.98 0h3.98m3.98 0h3.97m3.98 0h3.98m3.98 0h3.97m3.98 0H302m3.97 0h3.98m3.97 0h3.98m3.98 0h3.97m3.97 0h3.98m3.97 0h3.98m3.97 0h3.98m3.97 0h3.98m3.97 0h3.98m3.97 0h3.98m3.97 0h3.98m3.97 0h3.98m3.97 0h3.98m3.97 0h3.98m3.97 0h3.98m3.97 0h3.98m3.97 0h3.98m3.97 0h3.97m3.98 0h3.97m3.98 0h3.97m3.98 0h3.97m3.98 0h3.97m3.98 0h3.97m3.98 0h3.97m3.98 0h3.97m3.98 0h3.97m3.98 0h3.97m3.98 0h3.97m3.98 0h3.97m3.97 0h3.98m3.98 0h3.97m3.98 0h3.97m3.97 0h3.97m3.97 0h3.98m3.97 0h3.97m3.97 0h2l.93.07.92.22.42.17m3.24 3.24l.18.44.22.92.07.94v2m0 4v4m0 4v4m0 4v4.02m0 4v4m0 4v4m0 4v4m0 4.02v4m0 4v4m0 4v4m0 4v4.02m0 4v4m0 4v4m0 4v4m0 4.02v4m0 4v4m0 4v4m0 4v4.02m0 4v4m0 4v4m0 4v4m0 4.02v4m0 4v4m0 4v4m0 4v4.02m0 4v4m0 4v4m0 4v4m0 4v4.02m0 4v4m0 4v4m0 4v4m0 4.02v4m0 4v4m0 4v4m0 4.02v4m0 4v4m0 4v4m0 4v4m0 4.02v4m0 4v4m0 4v4m0 4v4.02m0 4v4m0 4v4m0 4v4m0 4.02v4m0 4v4m0 4v4m0 4v4.02m0 4v4m0 4v4m0 4v4m0 4.02v4m0 4v4m0 4v4m0 4v4m0 4.02v4m0 4v4m0 4v4m0 4v4.02m0 4v4m0 4v4m0 4v4m0 4.02v4m0 4v4m0 4v4m0 4v4.02m0 4v4m0 4v4m0 4v4m0 4.02v4m0 4v4m0 4v4m0 4v4.02m0 4v4m0 4v4m0 4v4m0 4.02v4m0 4v4m0 4v4m0 4v4.02m0 4v4m0 4v4m0 4v4m0 4v4.02m0 4v4m0 4v4m0 4v4m0 4.02v4m0 4v4m0 4v4m0 4v4.02m0 4v4m0 4v4m0 4v4m0 4.02v4m0 4v4m0 4v4m0 4v4.02m0 4v4m0 4v4m0 4v4m0 4.02v4m0 4v4m0 4v4m0 4v4.02m0 4v2l-.07.94-.22.9-.18.45m-3.24 3.23l-.43.18-.93.23-.94.07h-2m-3.96 0h-3.98m-3.98 0h-3.98m-3.97 0h-3.98m-3.98 0h-3.97m-3.98 0h-3.98m-3.98 0h-3.98m-3.97 0h-3.97m-3.98 0h-3.97m-3.98 0h-3.97m-3.98 0h-3.97m-3.98 0h-3.97m-3.98 0h-3.97m-3.98 0h-3.97m-3.98 0h-3.97m-3.98 0H457m-3.98 0h-3.97m-3.98 0h-3.97m-3.98 0h-3.97m-3.97 0h-3.98m-3.97 0h-3.98m-3.97 0h-3.98m-3.97 0h-3.98m-3.97 0h-3.98m-3.97 0h-3.98m-3.97 0h-3.98m-3.97 0h-3.98m-3.97 0h-3.98m-3.97 0h-3.98m-3.97 0h-3.98m-3.97 0h-3.98m-3.97 0h-3.98m-3.97 0h-3.97m-3.98 0h-3.98m-3.97 0h-3.98m-3.97 0H298m-3.97 0h-3.97m-3.98 0h-3.97m-3.97 0h-3.97m-3.98 0h-3.97m-3.97 0h-3.97m-3.98 0h-3.97m-3.97 0h-3.97m-3.98 0h-3.97m-3.97 0h-3.97m-3.98 0h-3.97m-3.97 0h-3.97m-3.97 0h-4m-3.97 0h-3.97m-3.97 0h-4m-3.96 0h-3.98m-3.97 0h-4m-3.96 0h-3.98m-3.97 0h-4m-3.96 0h-3.98m-3.97 0h-2l-.94-.07-.9-.22-.45-.17m-3.23-3.24l-.18-.45-.23-.9-.07-.95v-2m0-4v-4m0-4v-4m0-4.02v-4m0-4v-4m0-4v-4m0-4v-4m0-4.02v-4m0-4v-4m0-4v-4m0-4v-4.02m0-4v-4m0-4v-4m0-4v-4m0-4.02v-4m0-4v-4m0-4v-4m0-4v-4.02m0-4v-4m0-4v-4m0-4v-4m0-4.02v-4m0-4v-4m0-4v-4m0-4v-4.02m0-4v-4m0-4v-4m0-4v-4m0-4.02v-4m0-4v-4m0-4v-4m0-4v-4m0-4.02v-4m0-4v-4m0-4v-4m0-4.02v-4m0-4v-4m0-4v-4m0-4v-4m0-4.02v-4m0-4v-4m0-4v-4m0-4v-4.02m0-4v-4m0-4v-4m0-4v-4m0-4.02v-4m0-4v-4m0-4v-4m0-4v-4.02m0-4v-4m0-4v-4m0-4v-4m0-4.02v-4m0-4v-4m0-4v-4m0-4v-4.02m0-4v-4m0-4v-4m0-4v-4m0-4v-4.02m0-4v-4m0-4v-4m0-4v-4m0-4.02v-4m0-4v-4m0-4v-4m0-4v-4.02m0-4v-4m0-4v-4m0-4v-4m0-4.02v-4m0-4v-4m0-4v-4m0-4v-4.02m0-4v-4m0-4v-4m0-4v-4m0-4.02v-4m0-4v-4m0-4v-4m0-4v-4.02m0-4v-4m0-4v-4m0-4v-4m0-4.02v-4m0-4v-4m0-4v-4m0-4v-4m0-4.02v-4m0-4v-4m0-4v-4m0-4v-4.02m0-4v-4m0-4v-4m0-4v-4m0-4.02v-4m0-4v-4m0-4v-4m0-4v-4.02m0-4v-4m0-4v-4m0-4v-4m0-4.02v-4m0-4v-4m0-4v-4m0-4v-4.02m0-4v-2l.07-.94.22-.92.17-.43" stroke="#147eba" fill="none"/><use xlink:href="#c" transform="matrix(1,0,0,1,135,231.3995812925357) translate(110.89999999999998 14.4)"/><use xlink:href="#d" transform="matrix(1,0,0,1,135,231.3995812925357) translate(200.29999999999998 14.4)"/><use xlink:href="#e" transform="matrix(1,0,0,1,135,231.3995812925357) translate(246.25 14.4)"/><path d="M640.4 217.4a6 6 0 0 1 6-6h437.22a6 6 0 0 1 6 6V1074a6 6 0 0 1-6 6H646.4a6 6 0 0 1-6-6z" fill="#fff" fill-opacity="0"/><path d="M644.1 211.87l.43-.18.92-.23.93-.07h2m3.97 0h3.97m3.98 0h3.97m3.98 0h3.97m3.98 0h3.97m3.98 0h3.97m3.98 0h3.97m3.97 0h3.98m3.97 0h3.97m3.97 0h3.98m3.97 0h3.97m3.97 0h3.98m3.97 0h3.97m3.97 0h3.98m3.97 0h3.97m3.97 0h3.98m3.97 0h3.97m3.97 0h3.98m3.97 0h3.97m3.97 0h3.97m4 0h3.97m3.97 0h3.98m3.97 0h3.96m3.98 0h3.97m4 0h3.96m3.98 0h3.97m4 0h3.96m3.98 0H863m4 0h3.96m3.98 0h3.97m4 0h3.96m3.98 0h3.97m4 0h3.96m3.98 0h3.97m3.98 0h3.98m3.98 0h3.97m4 0h3.96m3.97 0h3.98m3.98 0h3.98m3.97 0h3.98m3.98 0h3.98m3.97 0h3.98m3.98 0h3.98m3.97 0h3.98m3.98 0h3.98m3.97 0h3.98m3.98 0h3.98m3.97 0h3.98m3.98 0h3.97m3.98 0h3.97m3.98 0h3.97m3.98 0h3.97m3.98 0h3.97m3.98 0h3.97m3.98 0h3.97m3.98 0h1.98l.95.07.92.22.43.17m3.24 3.24l.18.44.22.92.08.94v2m0 4v4m0 4v4m0 4v4.02m0 4v4m0 4v4m0 4v4m0 4.02v4m0 4v4m0 4v4m0 4v4.02m0 4v4m0 4v4m0 4v4m0 4.02v4m0 4v4m0 4v4m0 4v4.02m0 4v4m0 4v4m0 4v4m0 4.02v4m0 4v4m0 4v4m0 4v4.02m0 4v4m0 4v4m0 4v4m0 4v4.02m0 4v4m0 4v4m0 4v4m0 4.02v4m0 4v4m0 4v4m0 4.02v4m0 4v4m0 4v4m0 4v4m0 4.02v4m0 4v4m0 4v4m0 4v4.02m0 4v4m0 4v4m0 4v4m0 4.02v4m0 4v4m0 4v4m0 4v4.02m0 4v4m0 4v4m0 4v4m0 4.02v4m0 4v4m0 4v4m0 4v4m0 4.02v4m0 4v4m0 4v4m0 4v4.02m0 4v4m0 4v4m0 4v4m0 4.02v4m0 4v4m0 4v4m0 4v4.02m0 4v4m0 4v4m0 4v4m0 4.02v4m0 4v4m0 4v4m0 4v4.02m0 4v4m0 4v4m0 4v4m0 4.02v4m0 4v4m0 4v4m0 4v4.02m0 4v4m0 4v4m0 4v4m0 4v4.02m0 4v4m0 4v4m0 4v4m0 4.02v4m0 4v4m0 4v4m0 4v4.02m0 4v4m0 4v4m0 4v4m0 4.02v4m0 4v4m0 4v4m0 4v4.02m0 4v4m0 4v4m0 4v4m0 4.02v4m0 4v4m0 4v4m0 4v4.02m0 4v2l-.08.94-.22.9-.18.45m-3.24 3.23l-.43.18-.92.23-.93.07h-2m-3.97 0h-3.97m-3.98 0h-3.97m-3.98 0h-3.97m-3.98 0h-3.97m-3.97 0h-3.98m-3.98 0h-3.97m-3.98 0h-3.97m-3.97 0h-3.97m-3.97 0h-3.98m-3.97 0h-3.97m-3.97 0h-3.98m-3.97 0h-3.97m-3.97 0h-3.98m-3.97 0h-3.97m-3.97 0h-3.98m-3.97 0h-3.97m-3.97 0h-3.98m-3.97 0h-3.97m-3.97 0h-3.97m-4 0h-3.97m-3.97 0h-3.98m-3.97 0h-3.96m-3.98 0h-3.97m-4 0h-3.96m-3.98 0h-3.97m-4 0h-3.96m-3.98 0H867m-4 0h-3.96m-3.98 0h-3.97m-4 0h-3.96m-3.98 0h-3.97m-4 0h-3.96m-3.98 0h-3.97m-3.98 0h-3.98m-3.98 0h-3.97m-4 0h-3.96m-3.97 0h-3.98m-3.98 0h-3.98m-3.97 0h-3.98m-3.98 0h-3.98m-3.97 0h-3.98m-3.98 0h-3.98m-3.97 0h-3.98m-3.98 0h-3.98m-3.97 0h-3.98m-3.98 0h-3.98m-3.97 0H708m-3.98 0h-3.98m-3.97 0h-3.98m-3.98 0h-3.98m-3.97 0h-3.97m-3.98 0h-3.97m-3.98 0h-3.97m-3.98 0h-3.97m-3.98 0h-2l-.92-.07-.92-.22-.43-.17m-3.24-3.24l-.18-.45-.22-.9-.08-.95v-2m0-4v-4m0-4v-4m0-4.02v-4m0-4v-4m0-4v-4m0-4v-4m0-4.02v-4m0-4v-4m0-4v-4m0-4v-4.02m0-4v-4m0-4v-4m0-4v-4m0-4.02v-4m0-4v-4m0-4v-4m0-4v-4.02m0-4v-4m0-4v-4m0-4v-4m0-4.02v-4m0-4v-4m0-4v-4m0-4v-4.02m0-4v-4m0-4v-4m0-4v-4m0-4.02v-4m0-4v-4m0-4v-4m0-4v-4m0-4.02v-4m0-4v-4m0-4v-4m0-4.02v-4m0-4v-4m0-4v-4m0-4v-4m0-4.02v-4m0-4v-4m0-4v-4m0-4v-4.02m0-4v-4m0-4v-4m0-4v-4m0-4.02v-4m0-4v-4m0-4v-4m0-4v-4.02m0-4v-4m0-4v-4m0-4v-4m0-4.02v-4m0-4v-4m0-4v-4m0-4v-4.02m0-4v-4m0-4v-4m0-4v-4m0-4v-4.02m0-4v-4m0-4v-4m0-4v-4m0-4.02v-4m0-4v-4m0-4v-4m0-4v-4.02m0-4v-4m0-4v-4m0-4v-4m0-4.02v-4m0-4v-4m0-4v-4m0-4v-4.02m0-4v-4m0-4v-4m0-4v-4m0-4.02v-4m0-4v-4m0-4v-4m0-4v-4.02m0-4v-4m0-4v-4m0-4v-4m0-4.02v-4m0-4v-4m0-4v-4m0-4v-4m0-4.02v-4m0-4v-4m0-4v-4m0-4v-4.02m0-4v-4m0-4v-4m0-4v-4m0-4.02v-4m0-4v-4m0-4v-4m0-4v-4.02m0-4v-4m0-4v-4m0-4v-4m0-4.02v-4m0-4v-4m0-4v-4m0-4v-4.02m0-4v-2l.08-.94.22-.92.18-.43" stroke="#147eba" fill="none"/><use xlink:href="#c" transform="matrix(1,0,0,1,640.3846153846152,231.3995812925357) translate(110.89999999999998 14.4)"/><use xlink:href="#d" transform="matrix(1,0,0,1,640.3846153846152,231.3995812925357) translate(200.29999999999998 14.4)"/><use xlink:href="#f" transform="matrix(1,0,0,1,640.3846153846152,231.3995812925357) translate(246.25 14.4)"/><path d="M1145.77 217.4a6 6 0 0 1 6-6H1589a6 6 0 0 1 6 6V1074a6 6 0 0 1-6 6h-437.23a6 6 0 0 1-6-6z" fill="#fff" fill-opacity="0"/><path d="M1149.48 211.87l.43-.18.93-.23.94-.07h2m3.96 0h3.98m3.98 0h3.98m3.97 0h3.98m3.98 0h3.98m3.97 0h3.98m3.98 0h3.97m3.98 0h3.97m3.98 0h3.97m3.98 0h3.97m3.98 0h3.97m3.98 0h3.97m3.98 0h3.97m3.98 0h3.97m3.98 0h3.97m3.98 0h3.97m3.98 0h3.97m3.98 0h3.97m3.98 0h3.97m3.98 0h3.97m3.98 0h3.97m3.97 0h3.98m3.97 0h3.98m3.97 0h3.98m3.97 0h3.98m3.97 0h3.98m3.97 0h3.98m3.97 0h3.98m3.97 0h3.98m3.97 0h3.98m3.97 0h3.98m3.97 0h3.98m3.97 0h3.97m3.98 0h3.98m3.97 0h3.98m3.97 0h3.97m3.97 0h3.97m3.98 0h3.97m3.97 0h3.97m3.98 0h3.97m3.97 0h3.97m3.98 0h3.97m3.97 0h3.97m3.98 0h3.97m3.97 0h3.97m3.98 0h3.97m3.97 0h3.97m3.97 0h4m3.96 0h3.98m3.98 0h3.97m3.96 0h3.98m3.97 0h4m3.96 0h3.98m3.97 0h4m3.96 0h3.98m3.97 0h2l.94.07.9.22.45.17m3.23 3.24l.18.44.23.92.07.94v2m0 4v4m0 4v4m0 4v4.02m0 4v4m0 4v4m0 4v4m0 4.02v4m0 4v4m0 4v4m0 4v4.02m0 4v4m0 4v4m0 4v4m0 4.02v4m0 4v4m0 4v4m0 4v4.02m0 4v4m0 4v4m0 4v4m0 4.02v4m0 4v4m0 4v4m0 4v4.02m0 4v4m0 4v4m0 4v4m0 4v4.02m0 4v4m0 4v4m0 4v4m0 4.02v4m0 4v4m0 4v4m0 4.02v4m0 4v4m0 4v4m0 4v4m0 4.02v4m0 4v4m0 4v4m0 4v4.02m0 4v4m0 4v4m0 4v4m0 4.02v4m0 4v4m0 4v4m0 4v4.02m0 4v4m0 4v4m0 4v4m0 4.02v4m0 4v4m0 4v4m0 4v4m0 4.02v4m0 4v4m0 4v4m0 4v4.02m0 4v4m0 4v4m0 4v4m0 4.02v4m0 4v4m0 4v4m0 4v4.02m0 4v4m0 4v4m0 4v4m0 4.02v4m0 4v4m0 4v4m0 4v4.02m0 4v4m0 4v4m0 4v4m0 4.02v4m0 4v4m0 4v4m0 4v4.02m0 4v4m0 4v4m0 4v4m0 4v4.02m0 4v4m0 4v4m0 4v4m0 4.02v4m0 4v4m0 4v4m0 4v4.02m0 4v4m0 4v4m0 4v4m0 4.02v4m0 4v4m0 4v4m0 4v4.02m0 4v4m0 4v4m0 4v4m0 4.02v4m0 4v4m0 4v4m0 4v4.02m0 4v2l-.07.94-.22.9-.17.45m-3.24 3.23l-.45.18-.9.23-.95.07h-2m-3.96 0h-3.98m-3.97 0h-4m-3.96 0h-3.98m-3.97 0h-4m-3.96 0h-3.98m-3.97 0h-3.98m-3.98 0h-3.97m-3.98 0h-4m-3.96 0h-3.97m-3.98 0h-3.98m-3.98 0h-3.97m-3.98 0h-3.98m-3.98 0h-3.97m-3.98 0h-3.98m-3.98 0h-3.97m-3.98 0h-3.98m-3.98 0h-3.97m-3.98 0h-3.98m-3.98 0h-3.97m-3.98 0H1428m-3.97 0h-3.98m-3.97 0h-3.98m-3.97 0h-3.98m-3.97 0h-3.98m-3.97 0h-3.98m-3.97 0h-3.98m-3.97 0h-3.98m-3.97 0h-3.98m-3.97 0h-3.98m-3.97 0h-3.98m-3.97 0h-3.98m-3.97 0h-3.98m-3.97 0h-3.98m-3.97 0h-3.98m-3.97 0h-3.97m-3.98 0h-3.97m-3.98 0h-3.97m-3.98 0h-3.97m-3.98 0h-3.97m-3.98 0h-3.97m-3.98 0h-3.97m-3.98 0h-3.97m-3.98 0h-3.97m-3.98 0h-3.97m-3.98 0h-3.97m-3.98 0h-3.97m-3.98 0h-3.97m-3.98 0h-3.97m-3.98 0h-3.97m-3.97 0h-3.97m-3.97 0h-3.98m-3.97 0h-3.97m-3.97 0h-3.98m-3.97 0h-3.97m-3.97 0h-2l-.93-.07-.9-.22-.45-.17m-3.24-3.24l-.18-.45-.22-.9-.07-.95v-2m0-4v-4m0-4v-4m0-4.02v-4m0-4v-4m0-4v-4m0-4v-4m0-4.02v-4m0-4v-4m0-4v-4m0-4v-4.02m0-4v-4m0-4v-4m0-4v-4m0-4.02v-4m0-4v-4m0-4v-4m0-4v-4.02m0-4v-4m0-4v-4m0-4v-4m0-4.02v-4m0-4v-4m0-4v-4m0-4v-4.02m0-4v-4m0-4v-4m0-4v-4m0-4.02v-4m0-4v-4m0-4v-4m0-4v-4m0-4.02v-4m0-4v-4m0-4v-4m0-4.02v-4m0-4v-4m0-4v-4m0-4v-4m0-4.02v-4m0-4v-4m0-4v-4m0-4v-4.02m0-4v-4m0-4v-4m0-4v-4m0-4.02v-4m0-4v-4m0-4v-4m0-4v-4.02m0-4v-4m0-4v-4m0-4v-4m0-4.02v-4m0-4v-4m0-4v-4m0-4v-4.02m0-4v-4m0-4v-4m0-4v-4m0-4v-4.02m0-4v-4m0-4v-4m0-4v-4m0-4.02v-4m0-4v-4m0-4v-4m0-4v-4.02m0-4v-4m0-4v-4m0-4v-4m0-4.02v-4m0-4v-4m0-4v-4m0-4v-4.02m0-4v-4m0-4v-4m0-4v-4m0-4.02v-4m0-4v-4m0-4v-4m0-4v-4.02m0-4v-4m0-4v-4m0-4v-4m0-4.02v-4m0-4v-4m0-4v-4m0-4v-4m0-4.02v-4m0-4v-4m0-4v-4m0-4v-4.02m0-4v-4m0-4v-4m0-4v-4m0-4.02v-4m0-4v-4m0-4v-4m0-4v-4.02m0-4v-4m0-4v-4m0-4v-4m0-4.02v-4m0-4v-4m0-4v-4m0-4v-4.02m0-4v-2l.07-.94.22-.92.18-.43" stroke="#147eba" fill="none"/><use xlink:href="#g" transform="matrix(1,0,0,1,1145.7692307692305,231.3995812925358) translate(179.075 14.4)"/><path d="M149.04 722a30 30 0 0 1 30-30H540.2a30 30 0 0 1 30 30v288a30 30 0 0 1-30 30H179.03a30 30 0 0 1-30-30z" stroke="#474747" fill-opacity="0"/><path d="M211 680.24v-5.9c0-7.25-5.87-13.13-13.1-13.13-7.25 0-13.13 5.9-13.13 13.14v5.9h6.64v-5.9c0-3.58 2.92-6.5 6.5-6.5 3.56 0 6.47 2.92 6.47 6.5v5.9H211z" fill="#876a22"/><path d="M211 680.26h5.44v20.83h-37.4v-20.84h5.72v-7.1c0-7.28 5.87-13.16 13.13-13.16 7.24 0 13.1 5.88 13.1 13.15v7.1zm-6.64 0v-7.1c0-3.58-2.88-6.5-6.47-6.5-3.6 0-6.48 2.92-6.48 6.5v7.1h12.94z" fill="#daa835"/><path d="M179.04 701.1h37.4v.9h-37.4z" fill="#876a22"/><use xlink:href="#h" transform="matrix(1,0,0,1,149.03846153846152,1010) translate(138.22222222222223 11.11111111111111)"/><use xlink:href="#b" transform="matrix(1,0,0,1,149.03846153846152,1010) translate(213.40740740740742 11.11111111111111)"/><path d="M654.42 282a30 30 0 0 1 30-30h361.16a30 30 0 0 1 30 30v288a30 30 0 0 1-30 30H684.42a30 30 0 0 1-30-30z" stroke="#474747" fill-opacity="0"/><path d="M716.4 240.24v-5.9c0-7.25-5.88-13.13-13.13-13.13-7.24 0-13.12 5.9-13.12 13.14v5.9h6.64v-5.9c0-3.58 2.9-6.5 6.47-6.5s6.48 2.92 6.48 6.5v5.9h6.64z" fill="#876a22"/><path d="M716.4 240.26h5.42v20.83h-37.4v-20.84h5.73v-7.1c0-7.28 5.87-13.16 13.12-13.16 7.26 0 13.13 5.88 13.13 13.15v7.1zm-6.66 0v-7.1c0-3.6-2.88-6.5-6.47-6.5-3.6 0-6.47 2.9-6.47 6.5v7.1h12.94z" fill="#daa835"/><path d="M684.42 261.1h37.4v.9h-37.4z" fill="#876a22"/><use xlink:href="#a" transform="matrix(1,0,0,1,654.4230769230767,570) translate(142.54320987654322 11.11111111111111)"/><use xlink:href="#b" transform="matrix(1,0,0,1,654.4230769230767,570) translate(209.08641975308643 11.11111111111111)"/><path d="M654.42 722a30 30 0 0 1 30-30h361.16a30 30 0 0 1 30 30v288a30 30 0 0 1-30 30H684.42a30 30 0 0 1-30-30z" stroke="#474747" fill-opacity="0"/><path d="M716.4 680.24v-5.9c0-7.25-5.88-13.13-13.13-13.13-7.24 0-13.12 5.9-13.12 13.14v5.9h6.64v-5.9c0-3.58 2.9-6.5 6.47-6.5s6.48 2.92 6.48 6.5v5.9h6.64z" fill="#876a22"/><path d="M716.4 680.26h5.42v20.83h-37.4v-20.84h5.73v-7.1c0-7.28 5.87-13.16 13.12-13.16 7.26 0 13.13 5.88 13.13 13.15v7.1zm-6.66 0v-7.1c0-3.58-2.88-6.5-6.47-6.5-3.6 0-6.47 2.92-6.47 6.5v7.1h12.94z" fill="#daa835"/><path d="M684.42 701.1h37.4v.9h-37.4z" fill="#876a22"/><use xlink:href="#h" transform="matrix(1,0,0,1,654.4230769230767,1010) translate(138.22222222222223 11.11111111111111)"/><use xlink:href="#b" transform="matrix(1,0,0,1,654.4230769230767,1010) translate(213.40740740740742 11.11111111111111)"/><path d="M1159.8 282a30 30 0 0 1 30-30h361.16a30 30 0 0 1 30 30v288a30 30 0 0 1-30 30H1189.8a30 30 0 0 1-30-30z" stroke="#474747" fill-opacity="0"/><path d="M1221.78 240.24v-5.9c0-7.25-5.88-13.13-13.12-13.13-7.25 0-13.12 5.9-13.12 13.14v5.9h6.64v-5.9c0-3.58 2.9-6.5 6.48-6.5 3.57 0 6.48 2.92 6.48 6.5v5.9h6.64z" fill="#876a22"/><path d="M1221.8 240.26h5.4v20.83h-37.4v-20.84h5.73v-7.1c0-7.28 5.87-13.16 13.13-13.16 7.25 0 13.13 5.88 13.13 13.15v7.1zm-6.67 0v-7.1c0-3.6-2.88-6.5-6.47-6.5-3.6 0-6.47 2.9-6.47 6.5v7.1h12.93z" fill="#daa835"/><path d="M1189.8 261.1h37.4v.9h-37.4z" fill="#876a22"/><use xlink:href="#a" transform="matrix(1,0,0,1,1159.807692307692,570) translate(142.54320987654322 11.11111111111111)"/><use xlink:href="#b" transform="matrix(1,0,0,1,1159.807692307692,570) translate(209.08641975308643 11.11111111111111)"/><path d="M1159.8 722a30 30 0 0 1 30-30h361.16a30 30 0 0 1 30 30v288a30 30 0 0 1-30 30H1189.8a30 30 0 0 1-30-30z" stroke="#474747" fill-opacity="0"/><path d="M1221.78 680.24v-5.9c0-7.25-5.88-13.13-13.12-13.13-7.25 0-13.12 5.9-13.12 13.14v5.9h6.64v-5.9c0-3.58 2.9-6.5 6.48-6.5 3.57 0 6.48 2.92 6.48 6.5v5.9h6.64z" fill="#876a22"/><path d="M1221.8 680.26h5.4v20.83h-37.4v-20.84h5.73v-7.1c0-7.28 5.87-13.16 13.13-13.16 7.25 0 13.13 5.88 13.13 13.15v7.1zm-6.67 0v-7.1c0-3.58-2.88-6.5-6.47-6.5-3.6 0-6.47 2.92-6.47 6.5v7.1h12.93z" fill="#daa835"/><path d="M1189.8 701.1h37.4v.9h-37.4z" fill="#876a22"/><use xlink:href="#h" transform="matrix(1,0,0,1,1159.807692307692,1010) translate(138.22222222222223 11.11111111111111)"/><use xlink:href="#b" transform="matrix(1,0,0,1,1159.807692307692,1010) translate(213.40740740740742 11.11111111111111)"/><path d="M40 60h120v120H40V60z" stroke="#fff" stroke-opacity="0" fill="#693cc5"/><path d="M98.32 134.43H75.9c-8.8 0-15.45-5.83-15.93-13.92v-1.1c-.24-6.93 4.16-12.98 10.9-14.82v-1.26c.23-12.08 10.16-21.65 22.25-21.44 5.92.1 11.05 2.3 15.2 6.62 2.17 2.16 3.77 4.36 5.05 7.2 1.84-1.47 3.84-2.2 6.17-2.2 4.64 0 9.6 3.3 10.4 10.72 4.17.78 7.37 2.73 10.1 5.93l-2.5 2c-2.55-2.9-5.6-4.52-9.28-5.1-.8-.1-1.36-.68-1.36-1.47-.4-6.15-4-8.88-7.36-8.88-2.25 0-4.17 1-5.45 2.78-.4.48-.97.74-1.53.64-.64-.1-1.04-.48-1.28-1.06-1.13-3.25-2.73-5.83-5.2-8.25-3.54-3.6-7.78-5.5-12.9-5.66-10.25-.26-18.82 7.88-19.14 18.18 0 .8.08 1.47.16 2.26.08.8-.4 1.53-1.2 1.74-3.6.9-9.77 3.67-9.77 12.08v.9c.4 6.4 5.7 10.93 12.8 10.93H98.5z" stroke="#fff" stroke-opacity="0" fill="#fff"/><path d="M120.7 158.02c-18.97 0-19.2-21.32-19.2-21.52V117c0-.7.4-1.28 1.04-1.48l17.6-6.53c.37-.16.76-.16 1.14 0l17.6 6.52c.64.2 1.02.8 1.02 1.48v20.68c0 .2-.23 20.34-19.2 20.34zm-16-39.9v18.38c0 .74.22 18.32 16 18.32 15.8 0 16.02-16.45 16.02-17.14v-19.55l-16.02-5.95z" stroke="#fff" stroke-opacity="0" fill="#fff"/><path d="M120.7 152.03c-10.17 0-12.68-12.9-12.8-13.44V121.7c0-.7.4-1.23 1.02-1.5l11.2-4.42c.38-.15.8-.15 1.17 0l11.2 4.43c.63.26 1 .8 1 1.5v16.84c-.12.55-2.63 13.45-12.8 13.45zm-9.6-13.92c.25 1.25 2.56 10.73 9.6 10.73 7.07 0 9.35-9.48 9.6-10.72v-15.3l-9.6-3.77-9.6 3.78z" stroke="#fff" stroke-opacity="0" fill="#fff"/><use xlink:href="#i" transform="matrix(1,0,0,1,10,189) translate(23.395061728395063 17.77777777777778)"/><use xlink:href="#j" transform="matrix(1,0,0,1,10,189) translate(110.98765432098766 17.77777777777778)"/><path d="M135 982.36c0 31.8-25.76 57.63-57.5 57.63S20 1014.16 20 982.35c0-31.8 25.76-57.63 57.5-57.63s57.5 25.82 57.5 57.63z" fill="#9d5025"/><path d="M135 977.63c0 31.8-25.76 57.63-57.5 57.63S20 1009.44 20 977.63C20 945.83 45.76 920 77.5 920s57.5 25.82 57.5 57.63z" fill="#f58536"/><path d="M93.06 950.86h6.06v53.5h-6.06v-53.5zM110.1 964.4L126 977.38l-15.87 13.48V964.4z" fill="#fff"/><path d="M53.98 974.6l3.5 2.8-3.85 3.26h59.15v-6.06h-58.8zM53.63 953.9h45.5v-6.06H53.98l3.45 2.82-3.82 3.25zM57.45 1004.15l-3.82 3.26h45.5v-6.06H53.98l3.45 2.8zM41 967.04l12.68 10.35-12.7 10.8v-21.16zM41 940.3l12.68 10.35-12.7 10.8v-21.16zM41 993.8l12.68 10.36-12.7 10.78V993.8z" fill="#fff"/><use xlink:href="#k" transform="matrix(1,0,0,1,20,1040) translate(10.49382716049383 17.77777777777778)"/><use xlink:href="#l" transform="matrix(1,0,0,1,20,1040) translate(62.28395061728395 17.77777777777778)"/><use xlink:href="#m" transform="matrix(1,0,0,1,20,1040) translate(16.172839506172842 44.44444444444444)"/><path d="M135 542.36c0 31.8-25.76 57.63-57.5 57.63S20 574.16 20 542.35c0-31.8 25.76-57.63 57.5-57.63s57.5 25.82 57.5 57.63z" fill="#9d5025"/><path d="M20 537.62h115v4.73H20v-4.73z" fill="#9d5025"/><path d="M135 537.63c0 31.8-25.76 57.63-57.5 57.63S20 569.44 20 537.63C20 505.83 45.76 480 77.5 480s57.5 25.82 57.5 57.63z" fill="#f58536"/><path d="M34.15 543.36v-1.5c.43-7 4.33-12.8 10.65-15.86.6-12.86 11.52-22.8 24.42-22.13 8.06.4 14.82 4.5 18.9 11.48 6.57-2.77 14.1.28 16.88 6.82.43.95.7 1.72.86 2.67 8.67 1.7 14.9 10.03 14.9 17.02v1.4c0 8.53-8.83 16-18.88 16H52.94c-9.96.07-18.8-7.42-18.8-15.9z" fill="#fff"/><path d="M89.27 521.5L85.6 524l-1.87-4.06c-2.85-6.34-8.7-10.23-15.66-10.27H68c-9.52 0-17.3 7.77-17.3 17.38v3.23l-2.7.8c-4.57 1.83-7.57 5.85-7.94 10.8v1.4c0 4.66 5.7 10.08 12.96 10.08h49c7.33 0 12.95-5.42 12.95-10.1v-1.4c0-4.7-5.25-10.87-11.3-11.35l-3.3-.26-.23-3.28c0-1.4-.45-2.54-1.2-3.68-2.18-3.2-6.52-3.98-9.67-1.8z" fill="#f58536"/><use xlink:href="#n" transform="matrix(1,0,0,1,20,600) translate(19.876543209876544 17.77777777777778)"/><use xlink:href="#m" transform="matrix(1,0,0,1,20,600) translate(16.172839506172842 44.44444444444444)"/><path d="M910 422.36c0 31.8-25.76 57.63-57.5 57.63S795 454.16 795 422.35c0-31.8 25.76-57.63 57.5-57.63s57.5 25.82 57.5 57.63z" fill="#9d5025"/><path d="M910 417.63c0 31.8-25.76 57.63-57.5 57.63S795 449.44 795 417.63c0-31.8 25.76-57.63 57.5-57.63s57.5 25.82 57.5 57.63z" fill="#f58536"/><path d="M869.27 371.08V392H835.7v-20.92h33.57zM895.22 431.64v17.04h-17v-17.04h17zM873.73 431.64v17.04h-17v-17.04h17zM847.55 431.64v17.04h-17v-17.04h17zM826.05 431.64v17.04h-17v-17.04h17z" fill="#fff"/><path d="M816.02 416.9h3.06v16.7h-3.06v-16.7z" fill="#fff"/><path d="M816.02 416.9h24.57v3.05H816v-3.06z" fill="#fff"/><path d="M837.53 416.9h3.06v16.7h-3.07v-16.7zM863.7 416.9h3.06v16.7h-3.06v-16.7z" fill="#fff"/><path d="M863.7 416.9h24.56v3.05H863.7v-3.06z" fill="#fff"/><path d="M885.2 416.9h3.06v16.7h-3.05v-16.7zM826.8 404.95h3.06v13.47h-3.06v-13.47zM850.96 388.92h3.06v16.28h-3.06v-16.28z" fill="#fff"/><path d="M826.8 403.67h50.77v3.06H826.8v-3.06z" fill="#fff"/><path d="M874.5 404.95h3.07v13.47h-3.06v-13.47z" fill="#fff"/><use xlink:href="#o" transform="matrix(1,0,0,1,795,480) translate(3.271604938271601 17.77777777777778)"/><use xlink:href="#p" transform="matrix(1,0,0,1,795,480) translate(32.808641975308646 44.44444444444444)"/><use xlink:href="#q" transform="matrix(1,0,0,1,795,480) translate(13.734567901234563 71.11111111111111)"/><path d="M135 302.36c0 31.8-25.76 57.63-57.5 57.63S20 334.16 20 302.35c0-31.8 25.76-57.63 57.5-57.63s57.5 25.82 57.5 57.63z" fill="#9d5025"/><path d="M20 297.62h115v4.73H20v-4.73z" fill="#9d5025"/><path d="M135 297.63c0 31.8-25.76 57.63-57.5 57.63S20 329.44 20 297.63C20 265.83 45.76 240 77.5 240s57.5 25.82 57.5 57.63z" fill="#f58536"/><path d="M81.22 291.37H73.8l-4-34.33h15.4l-3.98 34.33z" fill="#fff"/><path d="M110.73 316.66l2.97-2.47-10.75-16.1-23.54-8.24-1.9 13.02 21.2 2 12.03 11.78zM44.22 316.66l-2.93-2.47L52 298.1l23.57-8.24 1.92 13.02-21.23 2-12.05 11.78zM88.16 257.03c0 5.9-4.78 10.7-10.67 10.7-5.9 0-10.68-4.8-10.68-10.7 0-5.9 4.78-10.7 10.67-10.7 5.88 0 10.66 4.8 10.66 10.7z" fill="#fff"/><path d="M77.5 268.68c-6.42 0-11.63-5.22-11.63-11.65 0-6.42 5.2-11.64 11.62-11.64 6.4 0 11.6 5.2 11.6 11.63h.02c0 6.43-5.2 11.65-11.63 11.65zm0-21.4c-5.38 0-9.74 4.37-9.74 9.75s4.36 9.76 9.73 9.76c5.36 0 9.73-4.4 9.73-9.77 0-5.38-4.37-9.75-9.74-9.75z" fill="#f58536"/><path d="M80.98 257.03c0 1.94-1.56 3.5-3.5 3.5-1.9 0-3.48-1.56-3.48-3.5 0-1.93 1.57-3.5 3.5-3.5 1.92 0 3.48 1.57 3.48 3.5z" fill="#f58536"/><path d="M85.18 296.24c0 4.26-3.44 7.7-7.7 7.7-4.23 0-7.67-3.44-7.67-7.7 0-4.25 3.45-7.7 7.7-7.7 4.24 0 7.68 3.45 7.68 7.7z" fill="#fff"/><path d="M77.5 304.9c-4.78-.02-8.64-3.9-8.63-8.67.02-4.78 3.9-8.66 8.65-8.64 4.75 0 8.6 3.85 8.62 8.6 0 4.8-3.85 8.68-8.63 8.7zm0-15.44c-3.74.02-6.74 3.05-6.74 6.78 0 3.74 3.03 6.75 6.76 6.74 3.73 0 6.73-3.03 6.73-6.77-.03-3.7-3.05-6.72-6.76-6.72z" fill="#f58536"/><path d="M79.85 296.24c0 1.3-1.06 2.37-2.36 2.37-1.3 0-2.37-1.05-2.37-2.36 0-1.3 1.06-2.36 2.36-2.36 1.3 0 2.35 1.06 2.35 2.36z" fill="#f58536"/><path d="M52.68 314h49.6v27.48H52.7V314z" fill="#fff"/><path d="M55.18 316.22h3.77v23.04h-3.77v-23.04zM62 316.22h3.76v23.04H62v-23.04zM68.8 316.22h3.78v23.04H68.8v-23.04zM75.6 316.22h3.78v23.04H75.6v-23.04zM82.4 316.22h3.78v23.04H82.4v-23.04zM89.23 316.22H93v23.04h-3.77v-23.04zM96.03 316.22h3.77v23.04h-3.77v-23.04z" fill="#fbbf93"/><use xlink:href="#r" transform="matrix(1,0,0,1,20,360) translate(16.79012345679012 17.77777777777778)"/><use xlink:href="#s" transform="matrix(1,0,0,1,20,360) translate(34.10493827160494 44.44444444444444)"/><path d="M931 129.56L909.9 140V20L931 30.56v99z" fill="#f58536"/><path d="M888.8 129.56L909.9 140V20l-21.1 10.56v99z" fill="#9d5025"/><path d="M901.94 63.66l-35.58-4.5v-17.5L901.94 50v13.66z" fill="#f58536"/><path d="M860 44.83l6.36-3.16v17.5L860 60.9V44.84z" fill="#9d5025"/><path d="M901.95 63.65l-7.38 1.1L860 60.9l6.38-1.74 35.57 4.5z" fill="#6b3a19"/><path d="M954.72 95.08L960 94V80h-5.28v15.08z" fill="#f58536"/><path d="M917.8 91.92l36.9 3.42V80h-36.9v11.92z" fill="#9d5025"/><use xlink:href="#r" transform="matrix(1,0,0,1,860,140) translate(9.29012345679012 17.77777777777778)"/><use xlink:href="#t" transform="matrix(1,0,0,1,860,140) translate(4.96913580246914 44.44444444444444)"/><use xlink:href="#u" transform="matrix(1,0,0,1,860,140) translate(70.3395061728395 44.44444444444444)"/><path d="M1620 260h120v120h-120V260z" stroke="#000" stroke-opacity="0" fill="url(#v)"/><path d="M1665.55 334.3c-.33-.4-.58-.88-.58-1.35 0-.47.25-.95.58-1.28 2.56-2.57 4.13-6.88 4.13-11.67 0-4.8-1.57-9.1-4.13-11.67-.33-.33-.58-.8-.58-1.28 0-.47.25-.94.58-1.35.75-.67 1.9-.67 2.64 0 5.52 5.47 18.16 5.47 23.7 0 .65-.67 1.9-.67 2.63 0 .33.4.5.88.5 1.35 0 .47-.17.95-.5 1.28-2.64 2.57-4.13 6.88-4.13 11.67 0 4.8 1.5 9.1 4.13 11.67.33.33.5.8.5 1.28 0 .47-.17.94-.5 1.35-.4.33-.9.54-1.32.54-.5 0-.98-.2-1.3-.54-5.54-5.47-18.18-5.47-23.7 0-.75.67-1.9.67-2.65 0zm35.92 6.94c3.3-3.23 5.28-6.47 6.77-10.72l3.55 1.22c-1.67 4.78-3.98 8.43-7.7 12.13-6.68 6.55-15.43 9.85-24.18 9.85s-17.5-3.3-24.2-9.85c-3.46-3.44-5.7-7-7.5-12.13l3.54-1.22c1.66 4.6 3.56 7.7 6.6 10.72 11.9 11.74 31.22 11.74 43.1 0zm-49.7-31.76l-3.56-1.22c1.83-5.05 4.06-8.7 7.53-12.13 13.37-13.15 35-13.15 48.38 0 3.64 3.64 6.03 7.35 7.7 12.13l-3.56 1.22c-1.5-4.25-3.56-7.5-6.77-10.72-11.9-11.74-31.2-11.74-43.1 0-3.05 3.03-4.95 6.13-6.6 10.72zm67.03 16.4c-1.65 1.6-3.8 2.42-5.94 2.42-2.15 0-4.3-.8-5.94-2.43-1.66-1.55-2.48-3.64-2.48-5.87s.82-4.32 2.47-5.87c1.58-1.55 3.73-2.43 5.96-2.43s4.38.88 5.94 2.43c3.3 3.24 3.3 8.5 0 11.74zm-65.7.06c-1.58 1.55-3.73 2.42-5.96 2.42s-4.38-.87-5.94-2.43c-3.3-3.23-3.3-8.5 0-11.8 1.57-1.55 3.7-2.43 5.94-2.43 2.23 0 4.38.88 5.94 2.43 3.3 3.3 3.3 8.57 0 11.8zm20.3-5.94c0 2.76-.42 5.4-1.24 7.76 2.47-.8 5.2-1.22 7.84-1.22 2.72 0 5.45.4 7.93 1.22-.83-2.37-1.33-5-1.33-7.76s.5-5.4 1.33-7.76c-4.96 1.62-10.82 1.62-15.77 0 .82 2.37 1.23 5 1.23 7.76zm-8.67 6.6l-3.14-2.08 1.8-2.7h-5.86v-3.64h5.87l-1.8-2.7 3.13-2.02 3.7 5.53c.42.6.42 1.4 0 2.08zm33.76 0l-3.14-2.08 1.8-2.7h-5.85v-3.64h5.87l-1.8-2.7 3.12-2.1 3.7 5.6c.42.62.42 1.42 0 2.03zm17.66-9.84c-.9-.87-2.06-1.35-3.3-1.35-1.24 0-2.4.5-3.3 1.36-.9.88-1.4 2.03-1.4 3.24 0 1.2.5 2.43 1.4 3.3 1.8 1.76 4.8 1.76 6.6 0 1.82-1.82 1.82-4.78 0-6.54zm-65.72 0c-.9-.87-2.06-1.35-3.3-1.35-1.24 0-2.4.5-3.3 1.36-1.82 1.82-1.82 4.72 0 6.55 1.73 1.76 4.87 1.76 6.6 0 1.82-1.82 1.82-4.72 0-6.54z" stroke="#000" stroke-opacity="0" fill="#fff"/><use xlink:href="#w" transform="matrix(1,0,0,1,1590,389) translate(27.099999999999994 14.4)"/><use xlink:href="#x" transform="matrix(1,0,0,1,1590,389) translate(98.05 14.4)"/><use xlink:href="#y" transform="matrix(1,0,0,1,1590,389) translate(30.549999999999997 36)"/><use xlink:href="#z" transform="matrix(1,0,0,1,1590,389) translate(89.55 36)"/><path d="M1737.24 450c1.56 0 2.76 1.26 2.76 2.74v68.52c0 1.48-1.2 2.74-2.76 2.74h-114.48c-1.56 0-2.76-1.26-2.76-2.74v-68.52c0-1.48 1.2-2.74 2.76-2.74zm-111.84 68.45h109.2v-62.9h-109.2zm13.92-17.98c-.96-.45-1.56-1.48-1.56-2.52v-22.57c0-1.1.72-2.07 1.56-2.5.96-.46 2.16-.3 3 .36l13.56 11.47c.72.6 1.08 1.34 1.08 2.15 0 .9-.36 1.63-1.08 2.15l-13.68 11.1c-.48.44-1.08.6-1.68.6-.36 0-.84-.08-1.2-.23zm78.36-.37l-13.56-11.47c-.72-.6-1.08-1.33-1.08-2.22 0-.8.36-1.55 1.08-2.06l13.68-11.1c.72-.67 1.92-.82 2.88-.37.96.44 1.56 1.4 1.56 2.5v22.58c0 1.1-.72 2.07-1.68 2.52-.36.15-.72.22-1.08.22-.6 0-1.32-.16-1.8-.6zm-54.84 13.54v-53.28h5.52v53.28zm14.76 0v-53.28h5.52v53.28zm14.4 0v-53.28h5.4v53.28zm-48.72-32.4v10.94l6.6-5.33zm73.44-.1l-6.6 5.34 6.6 5.63z" stroke="#000" stroke-opacity="0" fill="#b0084d"/><use xlink:href="#A" transform="matrix(1,0,0,1,1590,533) translate(43.05 14.4)"/><use xlink:href="#B" transform="matrix(1,0,0,1,1590,533) translate(86.95 14.4)"/><path d="M1617.5 690h120v120h-120V690z" stroke="#fff" stroke-opacity="0" stroke-width="2" fill="#3f8624"/><path d="M1715.8 754.06c-.47-2.48-3.3-4.25-5.3-5.53-.62-.4-2.3-1.04-2.45-1.6 0-.4 0-.8.15-1.2l1.6-11.46 1.4-10.17c.37-3.05-1.1-5.13-3.62-6.9-5.13-3.6-11.88-5.04-17.94-6-7.97-1.28-14.95-1.52-23-.72-7.28.48-13.34 1.92-20.08 4.8-3.38 1.6-7.9 4.1-7.3 8.42 1.55 12.97 3.46 25.95 5.23 38.93.75 5.93 1.6 11.86 2.36 17.8.3 2.47 1.7 4.4 4 5.35 4.9 2.65 11.03 3.45 16.63 3.93 7.73.73 14.32.5 22-.95 4.6-.8 13.18-2.25 13.94-8 .92-7.14 1.92-14.27 2.84-21.4l.38-2.17c2.6.65 10.05 2 9.13-3.12zm-40.65-40.86c9.66 0 20.63 1.12 29.2 5.85 1.4.72 4.46 2.32 3.54 4.33-.93 1.92-3.84 2.88-5.6 3.6-2.6.96-5 1.6-7.75 2.16-11.96 2.4-22.54 2.65-34.65.73-5.45-.57-9.97-1.93-14.88-4.33-1.15-.72-3.06-1.84-2.53-3.45.38-.9 1-1.53 1.83-2 3.76-2.4 7.2-3.85 11.58-4.65 6.6-1.6 12.43-2.33 19.25-2.25zm25.15 67.46c-.3 1.84-3.37 2.8-4.83 3.28-3.22 1.12-6.06 1.76-9.43 2.16-7.44.97-13.88.97-21.4 0-4.67-.4-8.58-1.44-12.8-3.52-1.14-.48-1.83-1.52-1.9-2.73-1.62-12.73-3.38-25.4-5.15-38.05l-1.85-13.78c3.84 2.1 7.36 3.37 11.66 4.1 4.68.95 8.6 1.43 13.35 1.75 9.2.64 17.1.24 26.22-1.44 4.83-.72 8.8-2.08 13.1-4.4l-3.37 25.07c-8.58-2.8-15.64-5.6-23.7-9.54-.37-.16-.68-.32-.98-.48-.46-.32-.3-.16-.54-.64-.38-.96-.46-1.6-1.3-2.4-.77-.56-1.6-.8-2.53-.72-2 .08-3.53 1.84-3.38 3.84.16 1.93 1.92 3.45 3.9 3.3.55-.1 1-.25 1.62-.5.6-.15.6-.15 1.22.17 8.2 4 15.33 6.97 24 9.85 1.22.4 1.22 0 1.22 1.04-.07.8-.15 1.53-.3 2.33l-1 7.6zm-24.7-37.9c0 .48-.6.4-.75.16-.23-.32.76-.72.76-.16zm31.53 11.22l.45-3.53c1.62.96 4.3 2.33 5.07 4.1-1.62.63-4.07-.17-5.53-.57z" stroke="#fff" stroke-opacity="0" stroke-width="2" fill="#fff"/><use xlink:href="#i" transform="matrix(1,0,0,1,1587.5,819) translate(12.345679012345684 17.77777777777778)"/><use xlink:href="#C" transform="matrix(1,0,0,1,1587.5,819) translate(99.93827160493828 17.77777777777778)"/><use xlink:href="#D" transform="matrix(1,0,0,1,1587.5,819) translate(11.080246913580254 44.44444444444444)"/><use xlink:href="#E" transform="matrix(1,0,0,1,1587.5,819) translate(94.96913580246914 44.44444444444444)"/><use xlink:href="#F" transform="matrix(1,0,0,1,1587.5,819) translate(69.07407407407408 71.11111111111111)"/><path d="M1007 756.9c0 6.35-20.6 11.65-46 11.65s-46-5.2-46-11.65v-5.26l46-6.35 46 6.34zM961 777.87l-46 65.2v5.26c0 6.4 20.6 11.66 46 11.66 25.38 0 46-5.18 46-11.67v-5.26z" fill="#19486f"/><path d="M961 740c25.38 0 46 5.22 46 11.65 0 6.43-20.62 11.65-46 11.65-25.4 0-46-5.22-46-11.65 0-6.43 20.6-11.65 46-11.65z" fill="#2e73b8"/><path d="M961 772.6c-25.4 0-46-5.17-46-11.64v82.14c0 6.38 20.6 11.63 46 11.63 25.38 0 46-5.25 46-11.63v-82.14c0 6.47-20.62 11.63-46 11.63z" fill="#2e73b8"/><path d="M931.6 787.4h20.2l9.2 35.3 9.06-35.3h20.44v52.94h-13.02V800.1h-.17l-11.07 40.24h-10.55L944.6 800.1h-.1v40.24h-12.9z" fill="#fff"/><use xlink:href="#G" transform="matrix(1,0,0,1,914.9999999999998,860) translate(4.117283950617285 17.77777777777778)"/><use xlink:href="#H" transform="matrix(1,0,0,1,914.9999999999998,860) translate(57.08024691358025 17.77777777777778)"/><use xlink:href="#I" transform="matrix(1,0,0,1,914.9999999999998,860) translate(4.672839506172842 44.44444444444444)"/><path d="M1527 756.9c0 6.35-20.6 11.65-46 11.65s-46-5.2-46-11.65v-5.26l46-6.35 46 6.34zM1481 777.87l-46 65.2v5.26c0 6.4 20.6 11.66 46 11.66 25.38 0 46-5.18 46-11.67v-5.26z" fill="#19486f"/><path d="M1481 740c25.38 0 46 5.22 46 11.65 0 6.43-20.62 11.65-46 11.65-25.4 0-46-5.22-46-11.65 0-6.43 20.6-11.65 46-11.65z" fill="#2e73b8"/><path d="M1481 772.6c-25.4 0-46-5.17-46-11.64v82.14c0 6.38 20.6 11.63 46 11.63 25.38 0 46-5.25 46-11.63v-82.14c0 6.47-20.62 11.63-46 11.63z" fill="#2e73b8"/><path d="M1470.68 823.12c.3 7.02 4.63 9.25 11.22 9.25 4.64 0 9.43-1.67 9.43-6.1 0-5.2-8.4-6.32-17-8.62-8.6-2.3-17.35-6.33-17.35-17.2 0-13 13.03-18.08 24.15-18.08 11.8 0 23.7 5.78 23.74 19.2h-15.45c.26-5.47-4.8-7.2-9.53-7.2-3.35 0-7.47 1.17-7.47 5.08 0 4.6 8.55 5.4 17.15 7.83 8.65 2.42 17.2 6.33 17.2 17.2 0 15.1-12.77 20-25.8 20-13.6 0-25.6-6.02-25.7-21.18z" fill="#fff"/><use xlink:href="#G" transform="matrix(1,0,0,1,1435,860) translate(4.117283950617285 17.77777777777778)"/><use xlink:href="#H" transform="matrix(1,0,0,1,1435,860) translate(57.08024691358025 17.77777777777778)"/><use xlink:href="#J" transform="matrix(1,0,0,1,1435,860) translate(4.672839506172842 44.44444444444444)"/><use xlink:href="#K" transform="matrix(1,0,0,1,1435,860) translate(7.111111111111114 71.11111111111111)"/><use xlink:href="#L" transform="matrix(1,0,0,1,1435,860) translate(-2.5493827160493865 97.77777777777777)"/><path d="M735 745.6h120V807H735v-61.4z" fill="#9d5025"/><path d="M735 740h120v61.4H735V740z" fill="#f58536"/><path d="M760.92 743.67h5.65v54.08h-5.65v-54.08zM740.1 743.67h5.64v54.08h-5.65v-54.08zM750.5 743.67h5.66v54.08h-5.66v-54.08zM823.4 743.67h5.66v54.08h-5.66v-54.08zM833.82 743.67h5.65v54.08h-5.65v-54.08zM844.24 743.67h5.65v54.08h-5.66v-54.08z" fill="#fbbf93"/><path d="M741.56 745.13h4.2v52.62h-4.2v-52.62zM751.98 745.13h4.2v52.62h-4.2v-52.62zM762.4 745.13h4.18v52.62h-4.18v-52.62zM824.88 745.13h4.2v52.62h-4.2v-52.62zM835.3 745.13h4.18v52.62h-4.18v-52.62zM845.7 745.13h4.2v52.62h-4.2v-52.62zM811.2 780.54c1.55 0 2.9 1.27 2.9 2.87v2.27c0 1.6-1.3 2.9-2.9 2.9h-32.4c-1.62 0-2.92-1.3-2.92-2.9v-2.24c0-1.6 1.3-2.9 2.9-2.9zm-1.3 5.2c.14.04.3.04.45 0 .6-.12 1.03-.72.88-1.35-.12-.63-.73-1.03-1.34-.9h-12.12c-.16-.04-.3-.04-.46 0-.6.12-1.03.72-.92 1.35.15.62.77 1.02 1.38.9h12.1M809.63 752.17c2.45 0 4.43 1.93 4.5 4.36v16.34c-.07 2.43-2.05 4.36-4.5 4.36H780.3c-2.4-.06-4.32-1.98-4.4-4.37v-16.33c.08-2.38 2-4.3 4.4-4.36zm1.22 20.7v-16.34c-.04-.73-.6-1.3-1.34-1.3h-29.2c-.72 0-1.3.6-1.3 1.3v16.34c0 .7.58 1.3 1.3 1.3h29.33c.73 0 1.3-.58 1.34-1.3" fill="#fff"/><use xlink:href="#M" transform="matrix(1,0,0,1,735,807) translate(37.19135802469136 17.77777777777778)"/><use xlink:href="#N" transform="matrix(1,0,0,1,735,807) translate(14.382716049382708 44.44444444444444)"/><use xlink:href="#O" transform="matrix(1,0,0,1,735,807) translate(39.660493827160494 71.11111111111111)"/><path d="M415 745.6h120V807H415v-61.4z" fill="#9d5025"/><path d="M415 740h120v61.4H415V740z" fill="#f58536"/><path d="M440.92 743.67h5.65v54.08h-5.65v-54.08zM420.1 743.67h5.64v54.08h-5.65v-54.08zM430.5 743.67h5.66v54.08h-5.66v-54.08zM503.4 743.67h5.66v54.08h-5.66v-54.08zM513.82 743.67h5.65v54.08h-5.65v-54.08zM524.24 743.67h5.65v54.08h-5.66v-54.08z" fill="#fbbf93"/><path d="M421.56 745.13h4.2v52.62h-4.2v-52.62zM431.98 745.13h4.2v52.62h-4.2v-52.62zM442.4 745.13h4.18v52.62h-4.18v-52.62zM504.88 745.13h4.2v52.62h-4.2v-52.62zM515.3 745.13h4.18v52.62h-4.18v-52.62zM525.7 745.13h4.2v52.62h-4.2v-52.62z" fill="#fff"/><path d="M466.78 756.9h16.45c5.67 0 5.67 0 5.67 5.64v16.37c0 5.65 0 5.65-5.67 5.65h-16.45c-5.66 0-5.66 0-5.66-5.64v-16.36c0-5.64 0-5.64 5.66-5.64z" fill="#d16929"/><path d="M483.2 786.24h-16.43c-4.05 0-7.36-3.3-7.36-7.33v-16.37c0-4.03 3.32-7.32 7.37-7.32h16.46c4.05 0 7.36 3.3 7.36 7.33v16.38c0 4.05-3.32 7.34-7.37 7.34h-.03zm-16.43-27.65c-2.18 0-3.96 1.76-3.96 3.93v16.38c0 2.2 1.8 3.96 3.97 3.96h16.46c2.18 0 3.96-1.77 3.96-3.95v-16.37c0-2.17-1.8-3.94-3.97-3.94z" fill="#fff"/><path d="M466.23 758.6c-.93 0-1.7-.77-1.7-1.7v-6.2c0-.93.77-1.7 1.7-1.7.94 0 1.7.77 1.7 1.7v6.2c0 .93-.76 1.7-1.7 1.7zM472.03 758.6c-.94 0-1.7-.77-1.7-1.7v-6.2c0-.93.76-1.7 1.7-1.7s1.7.77 1.7 1.7v6.2c0 .93-.76 1.7-1.7 1.7zM477.8 758.6c-.94 0-1.7-.77-1.7-1.7v-6.2c0-.93.76-1.7 1.7-1.7s1.7.77 1.7 1.7v6.2c0 .93-.76 1.7-1.7 1.7zM483.6 758.6c-.94 0-1.7-.77-1.7-1.7v-6.2c0-.93.76-1.7 1.7-1.7s1.7.77 1.7 1.7v6.2c0 .93-.76 1.7-1.7 1.7zM466.23 792.43c-.93 0-1.7-.75-1.7-1.68v-6.2c0-.93.77-1.7 1.7-1.7.94 0 1.7.77 1.7 1.7v6.2c0 .93-.76 1.68-1.7 1.68zM472.03 792.43c-.94 0-1.7-.75-1.7-1.68v-6.2c0-.93.76-1.7 1.7-1.7s1.7.77 1.7 1.7v6.2c0 .93-.76 1.68-1.7 1.68zM477.8 792.43c-.94 0-1.7-.75-1.7-1.68v-6.2c0-.93.76-1.7 1.7-1.7s1.7.77 1.7 1.7v6.2c0 .93-.76 1.68-1.7 1.68zM483.6 792.43c-.94 0-1.7-.75-1.7-1.68v-6.2c0-.93.76-1.7 1.7-1.7s1.7.77 1.7 1.7v6.2c0 .93-.76 1.68-1.7 1.68zM495.12 763.77h-6.25c-.93 0-1.7-.75-1.7-1.7 0-.92.77-1.68 1.7-1.68h6.23c.93 0 1.7.75 1.7 1.68 0 .93-.77 1.7-1.7 1.7zM495.12 769.5h-6.25c-.93 0-1.7-.74-1.7-1.67 0-.94.77-1.7 1.7-1.7h6.23c.93 0 1.7.76 1.7 1.7 0 .93-.77 1.68-1.7 1.68zM495.12 775.28h-6.25c-.93 0-1.7-.75-1.7-1.7 0-.92.77-1.68 1.7-1.68h6.23c.93 0 1.7.76 1.7 1.7 0 .93-.77 1.68-1.7 1.68zM495.12 781.03h-6.25c-.93 0-1.7-.76-1.7-1.7 0-.92.77-1.68 1.7-1.68h6.23c.93 0 1.7.76 1.7 1.7 0 .92-.77 1.68-1.7 1.68zM461.02 763.77h-6.23c-.94 0-1.7-.75-1.7-1.7 0-.92.76-1.68 1.7-1.68H461c.93 0 1.7.75 1.7 1.68 0 .93-.77 1.7-1.7 1.7zM461.02 769.5h-6.23c-.94 0-1.7-.74-1.7-1.67 0-.94.76-1.7 1.7-1.7H461c.93 0 1.7.76 1.7 1.7 0 .93-.77 1.68-1.7 1.68zM461.02 775.28h-6.23c-.94 0-1.7-.75-1.7-1.7 0-.92.76-1.68 1.7-1.68H461c.93 0 1.7.76 1.7 1.7 0 .93-.77 1.68-1.7 1.68zM461.02 781.03h-6.23c-.94 0-1.7-.76-1.7-1.7 0-.92.76-1.68 1.7-1.68H461c.93 0 1.7.76 1.7 1.7 0 .92-.77 1.68-1.7 1.68z" fill="#fff"/><path d="M469.38 765.13h11.22v11.17h-11.22v-11.17z" fill="#fbbf93"/><path d="M480.62 777.43H469.3c-.64 0-1.14-.5-1.14-1.13v-11.27c0-.62.5-1.12 1.13-1.12h11.32c.62 0 1.12.5 1.12 1.13v11.27c0 .63-.5 1.13-1.12 1.13zm-10.1-2.26h9.05v-9h-9.1z" fill="#fff"/><use xlink:href="#M" transform="matrix(1,0,0,1,415.0000000000001,807) translate(37.19135802469136 17.77777777777778)"/><use xlink:href="#N" transform="matrix(1,0,0,1,415.0000000000001,807) translate(14.382716049382708 44.44444444444444)"/><use xlink:href="#O" transform="matrix(1,0,0,1,415.0000000000001,807) translate(39.660493827160494 71.11111111111111)"/><path d="M1737.24 570c1.56 0 2.76 1.26 2.76 2.74v68.52c0 1.48-1.2 2.74-2.76 2.74h-114.48c-1.56 0-2.76-1.26-2.76-2.74v-68.52c0-1.48 1.2-2.74 2.76-2.74zm-111.84 68.45h109.2v-62.9h-109.2zm13.92-17.98c-.96-.45-1.56-1.48-1.56-2.52v-22.57c0-1.1.72-2.07 1.56-2.5.96-.46 2.16-.3 3 .36l13.56 11.47c.72.6 1.08 1.34 1.08 2.15 0 .9-.36 1.63-1.08 2.15l-13.68 11.1c-.48.44-1.08.6-1.68.6-.36 0-.84-.08-1.2-.23zm78.36-.37l-13.56-11.47c-.72-.6-1.08-1.33-1.08-2.22 0-.8.36-1.55 1.08-2.06l13.68-11.1c.72-.67 1.92-.82 2.88-.37.96.44 1.56 1.4 1.56 2.5v22.58c0 1.1-.72 2.07-1.68 2.52-.36.15-.72.22-1.08.22-.6 0-1.32-.16-1.8-.6zm-54.84 13.54v-53.28h5.52v53.28zm14.76 0v-53.28h5.52v53.28zm14.4 0v-53.28h5.4v53.28zm-48.72-32.4v10.94l6.6-5.33zm73.44-.1l-6.6 5.34 6.6 5.63z" stroke="#000" stroke-opacity="0" fill="#b0084d"/><use xlink:href="#P" transform="matrix(1,0,0,1,1590,653) translate(43.625 14.4)"/><use xlink:href="#Q" transform="matrix(1,0,0,1,1590,653) translate(82.575 14.4)"/><path d="M1212.3 745.6h120V807h-120v-61.4z" fill="#9d5025"/><path d="M1212.3 740h120v61.4h-120V740z" fill="#f58536"/><path d="M1238.23 743.67h5.65v54.08h-5.65v-54.08zM1217.4 743.67h5.65v54.08h-5.65v-54.08zM1227.8 743.67h5.66v54.08h-5.65v-54.08zM1300.7 743.67h5.66v54.08h-5.65v-54.08zM1311.13 743.67h5.65v54.08h-5.65v-54.08zM1321.54 743.67h5.66v54.08h-5.66v-54.08z" fill="#fbbf93"/><path d="M1218.87 745.13h4.2v52.62h-4.2v-52.62zM1229.3 745.13h4.18v52.62h-4.2v-52.62zM1239.7 745.13h4.2v52.62h-4.2v-52.62zM1302.2 745.13h4.18v52.62h-4.2v-52.62zM1312.6 745.13h4.2v52.62h-4.2v-52.62zM1323.02 745.13h4.2v52.62h-4.2v-52.62z" fill="#fff"/><path d="M1264.1 756.9h16.44c5.66 0 5.66 0 5.66 5.64v16.37c0 5.65 0 5.65-5.66 5.65h-16.45c-5.68 0-5.68 0-5.68-5.64v-16.36c0-5.64 0-5.64 5.67-5.64z" fill="#d16929"/><path d="M1280.5 786.24h-16.42c-4.06 0-7.36-3.3-7.36-7.33v-16.37c0-4.03 3.3-7.32 7.36-7.32h16.46c4.05 0 7.36 3.3 7.36 7.33v16.38c0 4.05-3.3 7.34-7.36 7.34h-.03zm-16.42-27.65c-2.18 0-3.96 1.76-3.96 3.93v16.38c0 2.2 1.78 3.96 3.96 3.96h16.46c2.18 0 3.96-1.77 3.96-3.95v-16.37c0-2.17-1.78-3.94-3.96-3.94z" fill="#fff"/><path d="M1263.54 758.6c-.94 0-1.7-.77-1.7-1.7v-6.2c0-.93.76-1.7 1.7-1.7s1.7.77 1.7 1.7v6.2c0 .93-.76 1.7-1.7 1.7zM1269.34 758.6c-.94 0-1.7-.77-1.7-1.7v-6.2c0-.93.76-1.7 1.7-1.7s1.7.77 1.7 1.7v6.2c0 .93-.76 1.7-1.7 1.7zM1275.1 758.6c-.93 0-1.7-.77-1.7-1.7v-6.2c0-.93.77-1.7 1.7-1.7.95 0 1.7.77 1.7 1.7v6.2c0 .93-.75 1.7-1.7 1.7zM1280.9 758.6c-.93 0-1.7-.77-1.7-1.7v-6.2c0-.93.77-1.7 1.7-1.7.94 0 1.7.77 1.7 1.7v6.2c0 .93-.76 1.7-1.7 1.7zM1263.54 792.43c-.94 0-1.7-.75-1.7-1.68v-6.2c0-.93.76-1.7 1.7-1.7s1.7.77 1.7 1.7v6.2c0 .93-.76 1.68-1.7 1.68zM1269.34 792.43c-.94 0-1.7-.75-1.7-1.68v-6.2c0-.93.76-1.7 1.7-1.7s1.7.77 1.7 1.7v6.2c0 .93-.76 1.68-1.7 1.68zM1275.1 792.43c-.93 0-1.7-.75-1.7-1.68v-6.2c0-.93.77-1.7 1.7-1.7.95 0 1.7.77 1.7 1.7v6.2c0 .93-.75 1.68-1.7 1.68zM1280.9 792.43c-.93 0-1.7-.75-1.7-1.68v-6.2c0-.93.77-1.7 1.7-1.7.94 0 1.7.77 1.7 1.7v6.2c0 .93-.76 1.68-1.7 1.68zM1292.43 763.77h-6.25c-.93 0-1.7-.75-1.7-1.7 0-.92.77-1.68 1.7-1.68h6.23c.94 0 1.7.75 1.7 1.68 0 .93-.76 1.7-1.7 1.7zM1292.43 769.5h-6.25c-.93 0-1.7-.74-1.7-1.67 0-.94.77-1.7 1.7-1.7h6.23c.94 0 1.7.76 1.7 1.7 0 .93-.76 1.68-1.7 1.68zM1292.43 775.28h-6.25c-.93 0-1.7-.75-1.7-1.7 0-.92.77-1.68 1.7-1.68h6.23c.94 0 1.7.76 1.7 1.7 0 .93-.76 1.68-1.7 1.68zM1292.43 781.03h-6.25c-.93 0-1.7-.76-1.7-1.7 0-.92.77-1.68 1.7-1.68h6.23c.94 0 1.7.76 1.7 1.7 0 .92-.76 1.68-1.7 1.68zM1258.33 763.77h-6.23c-.93 0-1.7-.75-1.7-1.7 0-.92.77-1.68 1.7-1.68h6.23c.93 0 1.7.75 1.7 1.68 0 .93-.77 1.7-1.7 1.7zM1258.33 769.5h-6.23c-.93 0-1.7-.74-1.7-1.67 0-.94.77-1.7 1.7-1.7h6.23c.93 0 1.7.76 1.7 1.7 0 .93-.77 1.68-1.7 1.68zM1258.33 775.28h-6.23c-.93 0-1.7-.75-1.7-1.7 0-.92.77-1.68 1.7-1.68h6.23c.93 0 1.7.76 1.7 1.7 0 .93-.77 1.68-1.7 1.68zM1258.33 781.03h-6.23c-.93 0-1.7-.76-1.7-1.7 0-.92.77-1.68 1.7-1.68h6.23c.93 0 1.7.76 1.7 1.7 0 .92-.77 1.68-1.7 1.68z" fill="#fff"/><path d="M1266.7 765.13h11.2v11.17h-11.2v-11.17z" fill="#fbbf93"/><path d="M1277.92 777.43h-11.33c-.63 0-1.13-.5-1.13-1.13v-11.27c0-.62.5-1.12 1.13-1.12h11.32c.63 0 1.13.5 1.13 1.13v11.27c0 .63-.5 1.13-1.13 1.13zm-10.1-2.26h9.06v-9h-9.1z" fill="#fff"/><use xlink:href="#M" transform="matrix(1,0,0,1,1212.307692307746,807) translate(37.19135802469136 17.77777777777778)"/><use xlink:href="#N" transform="matrix(1,0,0,1,1212.307692307746,807) translate(14.382716049382708 44.44444444444444)"/><use xlink:href="#R" transform="matrix(1,0,0,1,1212.307692307746,807) translate(26.75925925925926 71.11111111111111)"/><path d="M175 745.6h120V807H175v-61.4z" fill="#9d5025"/><path d="M175 740h120v61.4H175V740z" fill="#f58536"/><path d="M200.92 743.67h5.65v54.08h-5.65v-54.08zM180.1 743.67h5.64v54.08h-5.65v-54.08zM190.5 743.67h5.66v54.08h-5.66v-54.08zM263.4 743.67h5.66v54.08h-5.66v-54.08zM273.82 743.67h5.65v54.08h-5.65v-54.08zM284.24 743.67h5.65v54.08h-5.66v-54.08z" fill="#fbbf93"/><path d="M181.56 745.13h4.2v52.62h-4.2v-52.62zM191.98 745.13h4.2v52.62h-4.2v-52.62zM202.4 745.13h4.18v52.62h-4.18v-52.62zM264.88 745.13h4.2v52.62h-4.2v-52.62zM275.3 745.13h4.18v52.62h-4.18v-52.62zM285.7 745.13h4.2v52.62h-4.2v-52.62z" fill="#fff"/><path d="M226.78 756.9h16.45c5.67 0 5.67 0 5.67 5.64v16.37c0 5.65 0 5.65-5.67 5.65h-16.45c-5.66 0-5.66 0-5.66-5.64v-16.36c0-5.64 0-5.64 5.66-5.64z" fill="#d16929"/><path d="M243.2 786.24h-16.43c-4.05 0-7.36-3.3-7.36-7.33v-16.37c0-4.03 3.32-7.32 7.37-7.32h16.46c4.05 0 7.36 3.3 7.36 7.33v16.38c0 4.05-3.32 7.34-7.37 7.34h-.03zm-16.43-27.65c-2.18 0-3.96 1.76-3.96 3.93v16.38c0 2.2 1.8 3.96 3.97 3.96h16.46c2.18 0 3.96-1.77 3.96-3.95v-16.37c0-2.17-1.8-3.94-3.97-3.94z" fill="#fff"/><path d="M226.23 758.6c-.93 0-1.7-.77-1.7-1.7v-6.2c0-.93.77-1.7 1.7-1.7.94 0 1.7.77 1.7 1.7v6.2c0 .93-.76 1.7-1.7 1.7zM232.03 758.6c-.94 0-1.7-.77-1.7-1.7v-6.2c0-.93.76-1.7 1.7-1.7s1.7.77 1.7 1.7v6.2c0 .93-.76 1.7-1.7 1.7zM237.8 758.6c-.94 0-1.7-.77-1.7-1.7v-6.2c0-.93.77-1.7 1.7-1.7.94 0 1.7.77 1.7 1.7v6.2c0 .93-.76 1.7-1.7 1.7zM243.6 758.6c-.94 0-1.7-.77-1.7-1.7v-6.2c0-.93.76-1.7 1.7-1.7s1.7.77 1.7 1.7v6.2c0 .93-.77 1.7-1.7 1.7zM226.23 792.43c-.93 0-1.7-.75-1.7-1.68v-6.2c0-.93.77-1.7 1.7-1.7.94 0 1.7.77 1.7 1.7v6.2c0 .93-.76 1.68-1.7 1.68zM232.03 792.43c-.94 0-1.7-.75-1.7-1.68v-6.2c0-.93.76-1.7 1.7-1.7s1.7.77 1.7 1.7v6.2c0 .93-.76 1.68-1.7 1.68zM237.8 792.43c-.94 0-1.7-.75-1.7-1.68v-6.2c0-.93.77-1.7 1.7-1.7.94 0 1.7.77 1.7 1.7v6.2c0 .93-.76 1.68-1.7 1.68zM243.6 792.43c-.94 0-1.7-.75-1.7-1.68v-6.2c0-.93.76-1.7 1.7-1.7s1.7.77 1.7 1.7v6.2c0 .93-.77 1.68-1.7 1.68zM255.12 763.77h-6.25c-.93 0-1.7-.75-1.7-1.7 0-.92.77-1.68 1.7-1.68h6.23c.93 0 1.7.75 1.7 1.68 0 .93-.77 1.7-1.7 1.7zM255.12 769.5h-6.25c-.93 0-1.7-.74-1.7-1.67 0-.94.77-1.7 1.7-1.7h6.23c.93 0 1.7.76 1.7 1.7 0 .93-.77 1.68-1.7 1.68zM255.12 775.28h-6.25c-.93 0-1.7-.75-1.7-1.7 0-.92.77-1.68 1.7-1.68h6.23c.93 0 1.7.76 1.7 1.7 0 .93-.77 1.68-1.7 1.68zM255.12 781.03h-6.25c-.93 0-1.7-.76-1.7-1.7 0-.92.77-1.68 1.7-1.68h6.23c.93 0 1.7.76 1.7 1.7 0 .92-.77 1.68-1.7 1.68zM221.02 763.77h-6.23c-.94 0-1.7-.75-1.7-1.7 0-.92.76-1.68 1.7-1.68H221c.93 0 1.7.75 1.7 1.68 0 .93-.77 1.7-1.7 1.7zM221.02 769.5h-6.23c-.94 0-1.7-.74-1.7-1.67 0-.94.76-1.7 1.7-1.7H221c.93 0 1.7.76 1.7 1.7 0 .93-.77 1.68-1.7 1.68zM221.02 775.28h-6.23c-.94 0-1.7-.75-1.7-1.7 0-.92.76-1.68 1.7-1.68H221c.93 0 1.7.76 1.7 1.7 0 .93-.77 1.68-1.7 1.68zM221.02 781.03h-6.23c-.94 0-1.7-.76-1.7-1.7 0-.92.76-1.68 1.7-1.68H221c.93 0 1.7.76 1.7 1.7 0 .92-.77 1.68-1.7 1.68z" fill="#fff"/><path d="M229.38 765.13h11.22v11.17h-11.22v-11.17z" fill="#fbbf93"/><path d="M240.62 777.43H229.3c-.64 0-1.14-.5-1.14-1.13v-11.27c0-.62.5-1.12 1.13-1.12h11.32c.62 0 1.12.5 1.12 1.13v11.27c0 .63-.5 1.13-1.12 1.13zm-10.1-2.26h9.05v-9h-9.1z" fill="#fff"/><g><use xlink:href="#M" transform="matrix(1,0,0,1,175.00000000000006,807) translate(37.19135802469136 17.77777777777778)"/><use xlink:href="#N" transform="matrix(1,0,0,1,175.00000000000006,807) translate(14.382716049382708 44.44444444444444)"/><use xlink:href="#R" transform="matrix(1,0,0,1,175.00000000000006,807) translate(26.75925925925926 71.11111111111111)"/></g><path d="M1673.45 980.43h-12.62c-.93 0-1.7-.76-1.7-1.7v-12.77c0-.94.77-1.7 1.7-1.7h12.62c.93 0 1.7.76 1.7 1.7v12.77c0 .94-.77 1.7-1.7 1.7zm-10.9-3.4h9.2v-9.36h-9.2zM1690.18 974.12c-4.92.02-8.93-3.96-8.95-8.88-.02-4.93 3.96-8.94 8.88-8.96 4.94-.02 8.95 3.96 8.97 8.88v.04c.02 4.92-3.96 8.9-8.88 8.92h-.02zm0-14.43h-.03c-3.05 0-5.5 2.45-5.5 5.5s2.45 5.5 5.5 5.5 5.5-2.45 5.5-5.5c.03-3.03-2.43-5.5-5.47-5.5zM1671.83 958.08h-15.94c-.65 0-1.2-.3-1.5-.86-.3-.54-.3-1.16 0-1.7l8-13.32c.47-.8 1.52-1.05 2.33-.57.23.15.42.32.56.57l7.98 13.3c.3.56.3 1.18 0 1.72-.3.53-.83.85-1.45.86zm-12.94-3.4h9.93l-4.97-8.3z" stroke="#fff" stroke-opacity="0" fill="#3f8624"/><path d="M1677.7 990c-10.84 0-28.1-2.46-28.32-9.1l-7.73-57.2c-.14-.97.43-1.86 1.37-2.07.94-.13 1.88.48 2.1 1.44.8 3.28 13.65 7.86 32.64 7.86 19 0 31.86-4.58 32.65-7.86.23-.96 1.17-1.57 2.1-1.44.94.2 1.52 1.1 1.38 2.06l-7.87 57.2c0 2.26-2.1 4.18-6 5.75-1.8.68-3.38 1.16-5.26 1.57-5.92 1.3-10.98 1.78-17.05 1.78zm-31.93-61.66l6.93 52.3v.2c0 2.05 9.75 5.8 24.92 5.8 5.78.08 10.62-.47 16.25-1.63 1.74-.4 3.18-.88 4.84-1.56 3.12-1.23 3.84-2.33 3.84-2.67v-.14l7.08-52.23c-6.58 3.9-19.87 6.02-32 6.02-12.13 0-25.28-2.2-31.85-6.08z" stroke="#fff" stroke-opacity="0" fill="#3f8624"/><path d="M1677.7 934.32c-16.1 0-34.2-3.65-36-10.4V922.98v-.23c0-7.52 19.04-12.77 36.13-12.77 17.1 0 35.98 5.25 35.98 12.77v.22l-.06.7v.2c-1.8 6.77-19.9 10.42-36.05 10.42zm-32.67-11.2c1.08 3.3 13.84 7.8 32.66 7.8 18.8 0 31.57-4.5 32.65-7.8v-.45c-.14-3.3-13.63-9.26-32.66-9.26-19.05 0-32.46 5.96-32.75 9.27zM1713.88 957.87c-8.07 0-25.83-8.02-36.92-13.47l1.5-3.06c15.3 7.5 33.35 14.5 36.45 13.18-.23-.48-1.4-2.02-6.82-4.97l-.24-.16 1.7-2.98.24.17c5.46 2.98 8.07 5.3 8.53 7.5.17.93-.07 1.83-.7 2.57-1.03.95-2.3 1.36-3.72 1.2z" stroke="#fff" stroke-opacity="0" fill="#3f8624"/><path d="M1677.7 946.6c-2.03 0-3.7-1.66-3.7-3.7s1.67-3.7 3.7-3.7c2.04 0 3.7 1.66 3.7 3.7s-1.66 3.7-3.7 3.7zm0-4c-.17 0-.3.14-.3.3 0 .33.6.33.6 0v-.03c0-.17-.13-.3-.3-.3z" stroke="#fff" stroke-opacity="0" fill="#3f8624"/><g><use xlink:href="#S" transform="matrix(1,0,0,1,1611.65,999) translate(11.771604938271608 17.77777777777778)"/><use xlink:href="#T" transform="matrix(1,0,0,1,1611.65,999) translate(85.84567901234568 17.77777777777778)"/><use xlink:href="#U" transform="matrix(1,0,0,1,1611.65,999) translate(30.876543209876544 44.44444444444444)"/></g><defs><path fill="#3a414a" d="M30-248c87 1 191-15 191 75 0 78-77 80-158 76V0H30v-248zm33 125c57 0 124 11 124-50 0-59-68-47-124-48v98" id="V"/><path fill="#3a414a" d="M84 4C-5 8 30-112 23-190h32v120c0 31 7 50 39 49 72-2 45-101 50-169h31l1 190h-30c-1-10 1-25-2-33-11 22-28 36-60 37" id="W"/><path fill="#3a414a" d="M115-194c53 0 69 39 70 98 0 66-23 100-70 100C84 3 66-7 56-30L54 0H23l1-261h32v101c10-23 28-34 59-34zm-8 174c40 0 45-34 45-75 0-40-5-75-45-74-42 0-51 32-51 76 0 43 10 73 51 73" id="X"/><path fill="#3a414a" d="M24 0v-261h32V0H24" id="Y"/><path fill="#3a414a" d="M24-231v-30h32v30H24zM24 0v-190h32V0H24" id="Z"/><path fill="#3a414a" d="M96-169c-40 0-48 33-48 73s9 75 48 75c24 0 41-14 43-38l32 2c-6 37-31 61-74 61-59 0-76-41-82-99-10-93 101-131 147-64 4 7 5 14 7 22l-32 3c-4-21-16-35-41-35" id="aa"/><g id="a"><use transform="matrix(0.06172839506172839,0,0,0.06172839506172839,0,0)" xlink:href="#V"/><use transform="matrix(0.06172839506172839,0,0,0.06172839506172839,14.814814814814813,0)" xlink:href="#W"/><use transform="matrix(0.06172839506172839,0,0,0.06172839506172839,27.160493827160494,0)" xlink:href="#X"/><use transform="matrix(0.06172839506172839,0,0,0.06172839506172839,39.50617283950617,0)" xlink:href="#Y"/><use transform="matrix(0.06172839506172839,0,0,0.06172839506172839,44.382716049382715,0)" xlink:href="#Z"/><use transform="matrix(0.06172839506172839,0,0,0.06172839506172839,49.25925925925926,0)" xlink:href="#aa"/></g><path fill="#3a414a" d="M185-189c-5-48-123-54-124 2 14 75 158 14 163 119 3 78-121 87-175 55-17-10-28-26-33-46l33-7c5 56 141 63 141-1 0-78-155-14-162-118-5-82 145-84 179-34 5 7 8 16 11 25" id="ab"/><path fill="#3a414a" d="M117-194c89-4 53 116 60 194h-32v-121c0-31-8-49-39-48C34-167 62-67 57 0H25l-1-190h30c1 10-1 24 2 32 11-22 29-35 61-36" id="ac"/><path fill="#3a414a" d="M100-194c63 0 86 42 84 106H49c0 40 14 67 53 68 26 1 43-12 49-29l28 8c-11 28-37 45-77 45C44 4 14-33 15-96c1-61 26-98 85-98zm52 81c6-60-76-77-97-28-3 7-6 17-6 28h103" id="ad"/><path fill="#3a414a" d="M59-47c-2 24 18 29 38 22v24C64 9 27 4 27-40v-127H5v-23h24l9-43h21v43h35v23H59v120" id="ae"/><g id="b"><use transform="matrix(0.06172839506172839,0,0,0.06172839506172839,0,0)" xlink:href="#ab"/><use transform="matrix(0.06172839506172839,0,0,0.06172839506172839,14.814814814814813,0)" xlink:href="#W"/><use transform="matrix(0.06172839506172839,0,0,0.06172839506172839,27.160493827160494,0)" xlink:href="#X"/><use transform="matrix(0.06172839506172839,0,0,0.06172839506172839,39.50617283950617,0)" xlink:href="#ac"/><use transform="matrix(0.06172839506172839,0,0,0.06172839506172839,51.85185185185185,0)" xlink:href="#ad"/><use transform="matrix(0.06172839506172839,0,0,0.06172839506172839,64.19753086419753,0)" xlink:href="#ae"/></g><path fill="#147eba" d="M205 0l-28-72H64L36 0H1l101-248h38L239 0h-34zm-38-99l-47-123c-12 45-31 82-46 123h93" id="af"/><path fill="#147eba" d="M108 0H70L1-190h34L89-25l56-165h34" id="ag"/><path fill="#147eba" d="M141-36C126-15 110 5 73 4 37 3 15-17 15-53c-1-64 63-63 125-63 3-35-9-54-41-54-24 1-41 7-42 31l-33-3c5-37 33-52 76-52 45 0 72 20 72 64v82c-1 20 7 32 28 27v20c-31 9-61-2-59-35zM48-53c0 20 12 33 32 33 41-3 63-29 60-74-43 2-92-5-92 41" id="ah"/><path fill="#147eba" d="M24-231v-30h32v30H24zM24 0v-190h32V0H24" id="ai"/><path fill="#147eba" d="M24 0v-261h32V0H24" id="aj"/><path fill="#147eba" d="M115-194c53 0 69 39 70 98 0 66-23 100-70 100C84 3 66-7 56-30L54 0H23l1-261h32v101c10-23 28-34 59-34zm-8 174c40 0 45-34 45-75 0-40-5-75-45-74-42 0-51 32-51 76 0 43 10 73 51 73" id="ak"/><path fill="#147eba" d="M59-47c-2 24 18 29 38 22v24C64 9 27 4 27-40v-127H5v-23h24l9-43h21v43h35v23H59v120" id="al"/><path fill="#147eba" d="M179-190L93 31C79 59 56 82 12 73V49c39 6 53-20 64-50L1-190h34L92-34l54-156h33" id="am"/><g id="c"><use transform="matrix(0.05,0,0,0.05,0,0)" xlink:href="#af"/><use transform="matrix(0.05,0,0,0.05,11.65,0)" xlink:href="#ag"/><use transform="matrix(0.05,0,0,0.05,20.65,0)" xlink:href="#ah"/><use transform="matrix(0.05,0,0,0.05,30.649999999999995,0)" xlink:href="#ai"/><use transform="matrix(0.05,0,0,0.05,34.6,0)" xlink:href="#aj"/><use transform="matrix(0.05,0,0,0.05,38.550000000000004,0)" xlink:href="#ah"/><use transform="matrix(0.05,0,0,0.05,48.550000000000004,0)" xlink:href="#ak"/><use transform="matrix(0.05,0,0,0.05,58.550000000000004,0)" xlink:href="#ai"/><use transform="matrix(0.05,0,0,0.05,62.5,0)" xlink:href="#aj"/><use transform="matrix(0.05,0,0,0.05,66.45,0)" xlink:href="#ai"/><use transform="matrix(0.05,0,0,0.05,70.4,0)" xlink:href="#al"/><use transform="matrix(0.05,0,0,0.05,75.4,0)" xlink:href="#am"/></g><path fill="#147eba" d="M209 0H11v-25l151-195H24v-28h176v25L50-27h159V0" id="an"/><path fill="#147eba" d="M100-194c62-1 85 37 85 99 1 63-27 99-86 99S16-35 15-95c0-66 28-99 85-99zM99-20c44 1 53-31 53-75 0-43-8-75-51-75s-53 32-53 75 10 74 51 75" id="ao"/><path fill="#147eba" d="M117-194c89-4 53 116 60 194h-32v-121c0-31-8-49-39-48C34-167 62-67 57 0H25l-1-190h30c1 10-1 24 2 32 11-22 29-35 61-36" id="ap"/><path fill="#147eba" d="M100-194c63 0 86 42 84 106H49c0 40 14 67 53 68 26 1 43-12 49-29l28 8c-11 28-37 45-77 45C44 4 14-33 15-96c1-61 26-98 85-98zm52 81c6-60-76-77-97-28-3 7-6 17-6 28h103" id="aq"/><g id="d"><use transform="matrix(0.05,0,0,0.05,0,0)" xlink:href="#an"/><use transform="matrix(0.05,0,0,0.05,10.950000000000001,0)" xlink:href="#ao"/><use transform="matrix(0.05,0,0,0.05,20.950000000000003,0)" xlink:href="#ap"/><use transform="matrix(0.05,0,0,0.05,30.950000000000003,0)" xlink:href="#aq"/></g><path fill="#147eba" d="M232-93c-1 65-40 97-104 97C67 4 28-28 28-90v-158h33c8 89-33 224 67 224 102 0 64-133 71-224h33v155" id="ar"/><path fill="#147eba" d="M185-189c-5-48-123-54-124 2 14 75 158 14 163 119 3 78-121 87-175 55-17-10-28-26-33-46l33-7c5 56 141 63 141-1 0-78-155-14-162-118-5-82 145-84 179-34 5 7 8 16 11 25" id="as"/><path fill="#147eba" d="M16-82v-28h88v28H16" id="at"/><path fill="#147eba" d="M30 0v-248h187v28H63v79h144v27H63v87h162V0H30" id="au"/><path fill="#147eba" d="M135-143c-3-34-86-38-87 0 15 53 115 12 119 90S17 21 10-45l28-5c4 36 97 45 98 0-10-56-113-15-118-90-4-57 82-63 122-42 12 7 21 19 24 35" id="av"/><path fill="#147eba" d="M101-251c82-7 93 87 43 132L82-64C71-53 59-42 53-27h129V0H18c2-99 128-94 128-182 0-28-16-43-45-43s-46 15-49 41l-32-3c6-41 34-60 81-64" id="aw"/><g id="e"><use transform="matrix(0.05,0,0,0.05,0,0)" xlink:href="#ar"/><use transform="matrix(0.05,0,0,0.05,12.950000000000001,0)" xlink:href="#as"/><use transform="matrix(0.05,0,0,0.05,24.950000000000003,0)" xlink:href="#at"/><use transform="matrix(0.05,0,0,0.05,30.900000000000002,0)" xlink:href="#au"/><use transform="matrix(0.05,0,0,0.05,42.900000000000006,0)" xlink:href="#ah"/><use transform="matrix(0.05,0,0,0.05,52.900000000000006,0)" xlink:href="#av"/><use transform="matrix(0.05,0,0,0.05,61.900000000000006,0)" xlink:href="#al"/><use transform="matrix(0.05,0,0,0.05,66.9,0)" xlink:href="#at"/><use transform="matrix(0.05,0,0,0.05,72.85000000000001,0)" xlink:href="#aw"/><use transform="matrix(0.05,0,0,0.05,82.85000000000001,0)" xlink:href="#ah"/></g><g id="f"><use transform="matrix(0.05,0,0,0.05,0,0)" xlink:href="#ar"/><use transform="matrix(0.05,0,0,0.05,12.950000000000001,0)" xlink:href="#as"/><use transform="matrix(0.05,0,0,0.05,24.950000000000003,0)" xlink:href="#at"/><use transform="matrix(0.05,0,0,0.05,30.900000000000002,0)" xlink:href="#au"/><use transform="matrix(0.05,0,0,0.05,42.900000000000006,0)" xlink:href="#ah"/><use transform="matrix(0.05,0,0,0.05,52.900000000000006,0)" xlink:href="#av"/><use transform="matrix(0.05,0,0,0.05,61.900000000000006,0)" xlink:href="#al"/><use transform="matrix(0.05,0,0,0.05,66.9,0)" xlink:href="#at"/><use transform="matrix(0.05,0,0,0.05,72.85000000000001,0)" xlink:href="#aw"/><use transform="matrix(0.05,0,0,0.05,82.85000000000001,0)" xlink:href="#ak"/></g><path fill="#147eba" d="M96-169c-40 0-48 33-48 73s9 75 48 75c24 0 41-14 43-38l32 2c-6 37-31 61-74 61-59 0-76-41-82-99-10-93 101-131 147-64 4 7 5 14 7 22l-32 3c-4-21-16-35-41-35" id="ax"/><g id="g"><use transform="matrix(0.05,0,0,0.05,0,0)" xlink:href="#ar"/><use transform="matrix(0.05,0,0,0.05,12.950000000000001,0)" xlink:href="#as"/><use transform="matrix(0.05,0,0,0.05,24.950000000000003,0)" xlink:href="#at"/><use transform="matrix(0.05,0,0,0.05,30.900000000000002,0)" xlink:href="#au"/><use transform="matrix(0.05,0,0,0.05,42.900000000000006,0)" xlink:href="#ah"/><use transform="matrix(0.05,0,0,0.05,52.900000000000006,0)" xlink:href="#av"/><use transform="matrix(0.05,0,0,0.05,61.900000000000006,0)" xlink:href="#al"/><use transform="matrix(0.05,0,0,0.05,66.9,0)" xlink:href="#at"/><use transform="matrix(0.05,0,0,0.05,72.85000000000001,0)" xlink:href="#aw"/><use transform="matrix(0.05,0,0,0.05,82.85000000000001,0)" xlink:href="#ax"/></g><path fill="#3a414a" d="M114-163C36-179 61-72 57 0H25l-1-190h30c1 12-1 29 2 39 6-27 23-49 58-41v29" id="ay"/><path fill="#3a414a" d="M108 0H70L1-190h34L89-25l56-165h34" id="az"/><path fill="#3a414a" d="M141-36C126-15 110 5 73 4 37 3 15-17 15-53c-1-64 63-63 125-63 3-35-9-54-41-54-24 1-41 7-42 31l-33-3c5-37 33-52 76-52 45 0 72 20 72 64v82c-1 20 7 32 28 27v20c-31 9-61-2-59-35zM48-53c0 20 12 33 32 33 41-3 63-29 60-74-43 2-92-5-92 41" id="aA"/><g id="h"><use transform="matrix(0.06172839506172839,0,0,0.06172839506172839,0,0)" xlink:href="#V"/><use transform="matrix(0.06172839506172839,0,0,0.06172839506172839,14.814814814814813,0)" xlink:href="#ay"/><use transform="matrix(0.06172839506172839,0,0,0.06172839506172839,22.160493827160494,0)" xlink:href="#Z"/><use transform="matrix(0.06172839506172839,0,0,0.06172839506172839,27.037037037037038,0)" xlink:href="#az"/><use transform="matrix(0.06172839506172839,0,0,0.06172839506172839,38.14814814814815,0)" xlink:href="#aA"/><use transform="matrix(0.06172839506172839,0,0,0.06172839506172839,50.49382716049383,0)" xlink:href="#ae"/><use transform="matrix(0.06172839506172839,0,0,0.06172839506172839,56.66666666666667,0)" xlink:href="#ad"/></g><path fill="#3a414a" d="M205 0l-28-72H64L36 0H1l101-248h38L239 0h-34zm-38-99l-47-123c-12 45-31 82-46 123h93" id="aB"/><path fill="#3a414a" d="M210-169c-67 3-38 105-44 169h-31v-121c0-29-5-50-35-48C34-165 62-65 56 0H25l-1-190h30c1 10-1 24 2 32 10-44 99-50 107 0 11-21 27-35 58-36 85-2 47 119 55 194h-31v-121c0-29-5-49-35-48" id="aC"/><path fill="#3a414a" d="M9 0v-24l116-142H16v-24h144v24L44-24h123V0H9" id="aD"/><path fill="#3a414a" d="M100-194c62-1 85 37 85 99 1 63-27 99-86 99S16-35 15-95c0-66 28-99 85-99zM99-20c44 1 53-31 53-75 0-43-8-75-51-75s-53 32-53 75 10 74 51 75" id="aE"/><g id="i"><use transform="matrix(0.06172839506172839,0,0,0.06172839506172839,0,0)" xlink:href="#aB"/><use transform="matrix(0.06172839506172839,0,0,0.06172839506172839,14.814814814814813,0)" xlink:href="#aC"/><use transform="matrix(0.06172839506172839,0,0,0.06172839506172839,33.2716049382716,0)" xlink:href="#aA"/><use transform="matrix(0.06172839506172839,0,0,0.06172839506172839,45.61728395061728,0)" xlink:href="#aD"/><use transform="matrix(0.06172839506172839,0,0,0.06172839506172839,56.72839506172839,0)" xlink:href="#aE"/><use transform="matrix(0.06172839506172839,0,0,0.06172839506172839,69.07407407407408,0)" xlink:href="#ac"/></g><path fill="#3a414a" d="M137 0h-34L2-248h35l83 218 83-218h36" id="aF"/><path fill="#3a414a" d="M212-179c-10-28-35-45-73-45-59 0-87 40-87 99 0 60 29 101 89 101 43 0 62-24 78-52l27 14C228-24 195 4 139 4 59 4 22-46 18-125c-6-104 99-153 187-111 19 9 31 26 39 46" id="aG"/><g id="j"><use transform="matrix(0.06172839506172839,0,0,0.06172839506172839,0,0)" xlink:href="#aF"/><use transform="matrix(0.06172839506172839,0,0,0.06172839506172839,14.814814814814813,0)" xlink:href="#V"/><use transform="matrix(0.06172839506172839,0,0,0.06172839506172839,29.629629629629626,0)" xlink:href="#aG"/></g><g id="k"><use transform="matrix(0.06172839506172839,0,0,0.06172839506172839,0,0)" xlink:href="#aF"/><use transform="matrix(0.06172839506172839,0,0,0.06172839506172839,14.814814814814813,0)" xlink:href="#V"/><use transform="matrix(0.06172839506172839,0,0,0.06172839506172839,29.629629629629626,0)" xlink:href="#aG"/></g><path fill="#3a414a" d="M190 0L58-211 59 0H30v-248h39L202-35l-2-213h31V0h-41" id="aH"/><path fill="#3a414a" d="M127-220V0H93v-220H8v-28h204v28h-85" id="aI"/><g id="l"><use transform="matrix(0.06172839506172839,0,0,0.06172839506172839,0,0)" xlink:href="#aH"/><use transform="matrix(0.06172839506172839,0,0,0.06172839506172839,15.987654320987653,0)" xlink:href="#aB"/><use transform="matrix(0.06172839506172839,0,0,0.06172839506172839,29.1358024691358,0)" xlink:href="#aI"/></g><path fill="#3a414a" d="M177-190C167-65 218 103 67 71c-23-6-38-20-44-43l32-5c15 47 100 32 89-28v-30C133-14 115 1 83 1 29 1 15-40 15-95c0-56 16-97 71-98 29-1 48 16 59 35 1-10 0-23 2-32h30zM94-22c36 0 50-32 50-73 0-42-14-75-50-75-39 0-46 34-46 75s6 73 46 73" id="aJ"/><path fill="#3a414a" d="M206 0h-36l-40-164L89 0H53L-1-190h32L70-26l43-164h34l41 164 42-164h31" id="aK"/><path fill="#3a414a" d="M179-190L93 31C79 59 56 82 12 73V49c39 6 53-20 64-50L1-190h34L92-34l54-156h33" id="aL"/><g id="m"><use transform="matrix(0.06172839506172839,0,0,0.06172839506172839,0,0)" xlink:href="#aJ"/><use transform="matrix(0.06172839506172839,0,0,0.06172839506172839,12.345679012345679,0)" xlink:href="#aA"/><use transform="matrix(0.06172839506172839,0,0,0.06172839506172839,24.691358024691358,0)" xlink:href="#ae"/><use transform="matrix(0.06172839506172839,0,0,0.06172839506172839,30.864197530864196,0)" xlink:href="#ad"/><use transform="matrix(0.06172839506172839,0,0,0.06172839506172839,43.20987654320987,0)" xlink:href="#aK"/><use transform="matrix(0.06172839506172839,0,0,0.06172839506172839,59.197530864197525,0)" xlink:href="#aA"/><use transform="matrix(0.06172839506172839,0,0,0.06172839506172839,71.5432098765432,0)" xlink:href="#aL"/></g><path fill="#3a414a" d="M33 0v-248h34V0H33" id="aM"/><g id="n"><use transform="matrix(0.06172839506172839,0,0,0.06172839506172839,0,0)" xlink:href="#aM"/><use transform="matrix(0.06172839506172839,0,0,0.06172839506172839,6.172839506172839,0)" xlink:href="#ac"/><use transform="matrix(0.06172839506172839,0,0,0.06172839506172839,18.51851851851852,0)" xlink:href="#ae"/><use transform="matrix(0.06172839506172839,0,0,0.06172839506172839,24.691358024691358,0)" xlink:href="#ad"/><use transform="matrix(0.06172839506172839,0,0,0.06172839506172839,37.03703703703704,0)" xlink:href="#ay"/><use transform="matrix(0.06172839506172839,0,0,0.06172839506172839,44.382716049382715,0)" xlink:href="#ac"/><use transform="matrix(0.06172839506172839,0,0,0.06172839506172839,56.72839506172839,0)" xlink:href="#ad"/><use transform="matrix(0.06172839506172839,0,0,0.06172839506172839,69.07407407407408,0)" xlink:href="#ae"/></g><path fill="#3a414a" d="M115-194c55 1 70 41 70 98S169 2 115 4C84 4 66-9 55-30l1 105H24l-1-265h31l2 30c10-21 28-34 59-34zm-8 174c40 0 45-34 45-75s-6-73-45-74c-42 0-51 32-51 76 0 43 10 73 51 73" id="aN"/><g id="o"><use transform="matrix(0.06172839506172839,0,0,0.06172839506172839,0,0)" xlink:href="#aB"/><use transform="matrix(0.06172839506172839,0,0,0.06172839506172839,14.814814814814813,0)" xlink:href="#aN"/><use transform="matrix(0.06172839506172839,0,0,0.06172839506172839,27.160493827160494,0)" xlink:href="#aN"/><use transform="matrix(0.06172839506172839,0,0,0.06172839506172839,39.50617283950617,0)" xlink:href="#Y"/><use transform="matrix(0.06172839506172839,0,0,0.06172839506172839,44.382716049382715,0)" xlink:href="#Z"/><use transform="matrix(0.06172839506172839,0,0,0.06172839506172839,49.25925925925926,0)" xlink:href="#aa"/><use transform="matrix(0.06172839506172839,0,0,0.06172839506172839,60.37037037037037,0)" xlink:href="#aA"/><use transform="matrix(0.06172839506172839,0,0,0.06172839506172839,72.71604938271605,0)" xlink:href="#ae"/><use transform="matrix(0.06172839506172839,0,0,0.06172839506172839,78.88888888888889,0)" xlink:href="#Z"/><use transform="matrix(0.06172839506172839,0,0,0.06172839506172839,83.76543209876543,0)" xlink:href="#aE"/><use transform="matrix(0.06172839506172839,0,0,0.06172839506172839,96.11111111111111,0)" xlink:href="#ac"/></g><path fill="#3a414a" d="M30 0v-248h33v221h125V0H30" id="aO"/><path fill="#3a414a" d="M85-194c31 0 48 13 60 33l-1-100h32l1 261h-30c-2-10 0-23-3-31C134-8 116 4 85 4 32 4 16-35 15-94c0-66 23-100 70-100zm9 24c-40 0-46 34-46 75 0 40 6 74 45 74 42 0 51-32 51-76 0-42-9-74-50-73" id="aP"/><g id="p"><use transform="matrix(0.06172839506172839,0,0,0.06172839506172839,0,0)" xlink:href="#aO"/><use transform="matrix(0.06172839506172839,0,0,0.06172839506172839,12.345679012345679,0)" xlink:href="#aE"/><use transform="matrix(0.06172839506172839,0,0,0.06172839506172839,24.691358024691358,0)" xlink:href="#aA"/><use transform="matrix(0.06172839506172839,0,0,0.06172839506172839,37.03703703703704,0)" xlink:href="#aP"/></g><path fill="#3a414a" d="M160-131c35 5 61 23 61 61C221 17 115-2 30 0v-248c76 3 177-17 177 60 0 33-19 50-47 57zm-97-11c50-1 110 9 110-42 0-47-63-36-110-37v79zm0 115c55-2 124 14 124-45 0-56-70-42-124-44v89" id="aQ"/><g id="q"><use transform="matrix(0.06172839506172839,0,0,0.06172839506172839,0,0)" xlink:href="#aQ"/><use transform="matrix(0.06172839506172839,0,0,0.06172839506172839,14.814814814814813,0)" xlink:href="#aA"/><use transform="matrix(0.06172839506172839,0,0,0.06172839506172839,27.160493827160494,0)" xlink:href="#Y"/><use transform="matrix(0.06172839506172839,0,0,0.06172839506172839,32.03703703703704,0)" xlink:href="#aA"/><use transform="matrix(0.06172839506172839,0,0,0.06172839506172839,44.382716049382715,0)" xlink:href="#ac"/><use transform="matrix(0.06172839506172839,0,0,0.06172839506172839,56.72839506172839,0)" xlink:href="#aa"/><use transform="matrix(0.06172839506172839,0,0,0.06172839506172839,67.8395061728395,0)" xlink:href="#ad"/><use transform="matrix(0.06172839506172839,0,0,0.06172839506172839,80.18518518518519,0)" xlink:href="#ay"/></g><g id="r"><use transform="matrix(0.06172839506172839,0,0,0.06172839506172839,0,0)" xlink:href="#aB"/><use transform="matrix(0.06172839506172839,0,0,0.06172839506172839,14.814814814814813,0)" xlink:href="#aC"/><use transform="matrix(0.06172839506172839,0,0,0.06172839506172839,33.2716049382716,0)" xlink:href="#aA"/><use transform="matrix(0.06172839506172839,0,0,0.06172839506172839,45.61728395061728,0)" xlink:href="#aD"/><use transform="matrix(0.06172839506172839,0,0,0.06172839506172839,56.72839506172839,0)" xlink:href="#aE"/><use transform="matrix(0.06172839506172839,0,0,0.06172839506172839,69.07407407407408,0)" xlink:href="#ac"/></g><path fill="#3a414a" d="M30 0v-248h187v28H63v79h144v27H63v87h162V0H30" id="aR"/><path fill="#3a414a" d="M233-177c-1 41-23 64-60 70L243 0h-38l-65-103H63V0H30v-248c88 3 205-21 203 71zM63-129c60-2 137 13 137-47 0-61-80-42-137-45v92" id="aS"/><g id="s"><use transform="matrix(0.06172839506172839,0,0,0.06172839506172839,0,0)" xlink:href="#aR"/><use transform="matrix(0.06172839506172839,0,0,0.06172839506172839,14.814814814814813,0)" xlink:href="#aG"/><use transform="matrix(0.06172839506172839,0,0,0.06172839506172839,30.80246913580247,0)" xlink:href="#aS"/></g><g id="t"><use transform="matrix(0.06172839506172839,0,0,0.06172839506172839,0,0)" xlink:href="#aS"/><use transform="matrix(0.06172839506172839,0,0,0.06172839506172839,15.987654320987653,0)" xlink:href="#aE"/><use transform="matrix(0.06172839506172839,0,0,0.06172839506172839,28.333333333333332,0)" xlink:href="#W"/><use transform="matrix(0.06172839506172839,0,0,0.06172839506172839,40.67901234567901,0)" xlink:href="#ae"/><use transform="matrix(0.06172839506172839,0,0,0.06172839506172839,46.851851851851855,0)" xlink:href="#ad"/></g><path fill="#3a414a" d="M54-142c48-35 137-8 131 61C196 18 31 33 14-55l32-4c7 23 22 37 52 37 35-1 51-22 54-58 4-55-73-65-99-34H22l8-134h141v27H59" id="aT"/><path fill="#3a414a" d="M126-127c33 6 58 20 58 59 0 88-139 92-164 29-3-8-5-16-6-25l32-3c6 27 21 44 54 44 32 0 52-15 52-46 0-38-36-46-79-43v-28c39 1 72-4 72-42 0-27-17-43-46-43-28 0-47 15-49 41l-32-3c6-42 35-63 81-64 48-1 79 21 79 65 0 36-21 52-52 59" id="aU"/><g id="u"><use transform="matrix(0.06172839506172839,0,0,0.06172839506172839,0,0)" xlink:href="#aT"/><use transform="matrix(0.06172839506172839,0,0,0.06172839506172839,12.345679012345679,0)" xlink:href="#aU"/></g><linearGradient gradientUnits="userSpaceOnUse" id="v" x1="1620" y1="380" x2="1740" y2="260"><stop offset="0%" stop-color="#b0084d"/><stop offset="100%" stop-color="#ff4f8b"/></linearGradient><path d="M205 0l-28-72H64L36 0H1l101-248h38L239 0h-34zm-38-99l-47-123c-12 45-31 82-46 123h93" id="aV"/><path d="M210-169c-67 3-38 105-44 169h-31v-121c0-29-5-50-35-48C34-165 62-65 56 0H25l-1-190h30c1 10-1 24 2 32 10-44 99-50 107 0 11-21 27-35 58-36 85-2 47 119 55 194h-31v-121c0-29-5-49-35-48" id="aW"/><path d="M141-36C126-15 110 5 73 4 37 3 15-17 15-53c-1-64 63-63 125-63 3-35-9-54-41-54-24 1-41 7-42 31l-33-3c5-37 33-52 76-52 45 0 72 20 72 64v82c-1 20 7 32 28 27v20c-31 9-61-2-59-35zM48-53c0 20 12 33 32 33 41-3 63-29 60-74-43 2-92-5-92 41" id="aX"/><path d="M9 0v-24l116-142H16v-24h144v24L44-24h123V0H9" id="aY"/><path d="M100-194c62-1 85 37 85 99 1 63-27 99-86 99S16-35 15-95c0-66 28-99 85-99zM99-20c44 1 53-31 53-75 0-43-8-75-51-75s-53 32-53 75 10 74 51 75" id="aZ"/><path d="M117-194c89-4 53 116 60 194h-32v-121c0-31-8-49-39-48C34-167 62-67 57 0H25l-1-190h30c1 10-1 24 2 32 11-22 29-35 61-36" id="ba"/><g id="w"><use transform="matrix(0.05,0,0,0.05,0,0)" xlink:href="#aV"/><use transform="matrix(0.05,0,0,0.05,12,0)" xlink:href="#aW"/><use transform="matrix(0.05,0,0,0.05,26.950000000000003,0)" xlink:href="#aX"/><use transform="matrix(0.05,0,0,0.05,36.95,0)" xlink:href="#aY"/><use transform="matrix(0.05,0,0,0.05,45.95,0)" xlink:href="#aZ"/><use transform="matrix(0.05,0,0,0.05,55.95,0)" xlink:href="#ba"/></g><path d="M185-189c-5-48-123-54-124 2 14 75 158 14 163 119 3 78-121 87-175 55-17-10-28-26-33-46l33-7c5 56 141 63 141-1 0-78-155-14-162-118-5-82 145-84 179-34 5 7 8 16 11 25" id="bb"/><path d="M24-231v-30h32v30H24zM24 0v-190h32V0H24" id="bc"/><path d="M115-194c55 1 70 41 70 98S169 2 115 4C84 4 66-9 55-30l1 105H24l-1-265h31l2 30c10-21 28-34 59-34zm-8 174c40 0 45-34 45-75s-6-73-45-74c-42 0-51 32-51 76 0 43 10 73 51 73" id="bd"/><path d="M24 0v-261h32V0H24" id="be"/><path d="M100-194c63 0 86 42 84 106H49c0 40 14 67 53 68 26 1 43-12 49-29l28 8c-11 28-37 45-77 45C44 4 14-33 15-96c1-61 26-98 85-98zm52 81c6-60-76-77-97-28-3 7-6 17-6 28h103" id="bf"/><g id="x"><use transform="matrix(0.05,0,0,0.05,0,0)" xlink:href="#bb"/><use transform="matrix(0.05,0,0,0.05,12,0)" xlink:href="#bc"/><use transform="matrix(0.05,0,0,0.05,15.949999999999998,0)" xlink:href="#aW"/><use transform="matrix(0.05,0,0,0.05,30.899999999999995,0)" xlink:href="#bd"/><use transform="matrix(0.05,0,0,0.05,40.9,0)" xlink:href="#be"/><use transform="matrix(0.05,0,0,0.05,44.85,0)" xlink:href="#bf"/></g><path d="M140-251c81 0 123 46 123 126C263-53 228-8 163 1c7 30 30 48 69 40v23c-55 16-95-15-103-61C56-3 17-48 17-125c0-80 42-126 123-126zm0 227c63 0 89-41 89-101s-29-99-89-99c-61 0-89 39-89 99S79-25 140-24" id="bg"/><path d="M84 4C-5 8 30-112 23-190h32v120c0 31 7 50 39 49 72-2 45-101 50-169h31l1 190h-30c-1-10 1-25-2-33-11 22-28 36-60 37" id="bh"/><g id="y"><use transform="matrix(0.05,0,0,0.05,0,0)" xlink:href="#bg"/><use transform="matrix(0.05,0,0,0.05,14,0)" xlink:href="#bh"/><use transform="matrix(0.05,0,0,0.05,24,0)" xlink:href="#bf"/><use transform="matrix(0.05,0,0,0.05,34,0)" xlink:href="#bh"/><use transform="matrix(0.05,0,0,0.05,44,0)" xlink:href="#bf"/></g><path d="M114-163C36-179 61-72 57 0H25l-1-190h30c1 12-1 29 2 39 6-27 23-49 58-41v29" id="bi"/><path d="M108 0H70L1-190h34L89-25l56-165h34" id="bj"/><path d="M96-169c-40 0-48 33-48 73s9 75 48 75c24 0 41-14 43-38l32 2c-6 37-31 61-74 61-59 0-76-41-82-99-10-93 101-131 147-64 4 7 5 14 7 22l-32 3c-4-21-16-35-41-35" id="bk"/><g id="z"><use transform="matrix(0.05,0,0,0.05,0,0)" xlink:href="#bb"/><use transform="matrix(0.05,0,0,0.05,12,0)" xlink:href="#bf"/><use transform="matrix(0.05,0,0,0.05,22,0)" xlink:href="#bi"/><use transform="matrix(0.05,0,0,0.05,27.950000000000003,0)" xlink:href="#bj"/><use transform="matrix(0.05,0,0,0.05,36.95,0)" xlink:href="#bc"/><use transform="matrix(0.05,0,0,0.05,40.900000000000006,0)" xlink:href="#bk"/><use transform="matrix(0.05,0,0,0.05,49.900000000000006,0)" xlink:href="#bf"/></g><g id="A"><use transform="matrix(0.05,0,0,0.05,0,0)" xlink:href="#aW"/><use transform="matrix(0.05,0,0,0.05,14.950000000000001,0)" xlink:href="#aX"/><use transform="matrix(0.05,0,0,0.05,24.950000000000003,0)" xlink:href="#bc"/><use transform="matrix(0.05,0,0,0.05,28.900000000000002,0)" xlink:href="#ba"/></g><path d="M145-31C134-9 116 4 85 4 32 4 16-35 15-94c0-59 17-99 70-100 32-1 48 14 60 33 0-11-1-24 2-32h30l-1 268h-32zM93-21c41 0 51-33 51-76s-8-73-50-73c-40 0-46 35-46 75s5 74 45 74" id="bl"/><g id="B"><use transform="matrix(0.05,0,0,0.05,0,0)" xlink:href="#bl"/><use transform="matrix(0.05,0,0,0.05,10,0)" xlink:href="#bh"/><use transform="matrix(0.05,0,0,0.05,20,0)" xlink:href="#bf"/><use transform="matrix(0.05,0,0,0.05,30,0)" xlink:href="#bh"/><use transform="matrix(0.05,0,0,0.05,40,0)" xlink:href="#bf"/></g><g id="C"><use transform="matrix(0.06172839506172839,0,0,0.06172839506172839,0,0)" xlink:href="#ab"/><use transform="matrix(0.06172839506172839,0,0,0.06172839506172839,14.814814814814813,0)" xlink:href="#Z"/><use transform="matrix(0.06172839506172839,0,0,0.06172839506172839,19.691358024691354,0)" xlink:href="#aC"/><use transform="matrix(0.06172839506172839,0,0,0.06172839506172839,38.14814814814814,0)" xlink:href="#aN"/><use transform="matrix(0.06172839506172839,0,0,0.06172839506172839,50.493827160493815,0)" xlink:href="#Y"/><use transform="matrix(0.06172839506172839,0,0,0.06172839506172839,55.37037037037036,0)" xlink:href="#ad"/></g><g id="D"><use transform="matrix(0.06172839506172839,0,0,0.06172839506172839,0,0)" xlink:href="#ab"/><use transform="matrix(0.06172839506172839,0,0,0.06172839506172839,14.814814814814813,0)" xlink:href="#ae"/><use transform="matrix(0.06172839506172839,0,0,0.06172839506172839,20.98765432098765,0)" xlink:href="#aE"/><use transform="matrix(0.06172839506172839,0,0,0.06172839506172839,33.33333333333333,0)" xlink:href="#ay"/><use transform="matrix(0.06172839506172839,0,0,0.06172839506172839,40.679012345679006,0)" xlink:href="#aA"/><use transform="matrix(0.06172839506172839,0,0,0.06172839506172839,53.02469135802468,0)" xlink:href="#aJ"/><use transform="matrix(0.06172839506172839,0,0,0.06172839506172839,65.37037037037037,0)" xlink:href="#ad"/></g><g id="E"><use transform="matrix(0.06172839506172839,0,0,0.06172839506172839,0,0)" xlink:href="#ab"/><use transform="matrix(0.06172839506172839,0,0,0.06172839506172839,14.814814814814813,0)" xlink:href="#ad"/><use transform="matrix(0.06172839506172839,0,0,0.06172839506172839,27.160493827160494,0)" xlink:href="#ay"/><use transform="matrix(0.06172839506172839,0,0,0.06172839506172839,34.50617283950617,0)" xlink:href="#az"/><use transform="matrix(0.06172839506172839,0,0,0.06172839506172839,45.61728395061728,0)" xlink:href="#Z"/><use transform="matrix(0.06172839506172839,0,0,0.06172839506172839,50.49382716049382,0)" xlink:href="#aa"/><use transform="matrix(0.06172839506172839,0,0,0.06172839506172839,61.60493827160494,0)" xlink:href="#ad"/></g><path fill="#3a414a" d="M87 75C49 33 22-17 22-94c0-76 28-126 65-167h31c-38 41-64 92-64 168S80 34 118 75H87" id="bm"/><path fill="#3a414a" d="M33-261c38 41 65 92 65 168S71 34 33 75H2C39 34 66-17 66-93S39-220 2-261h31" id="bn"/><g id="F"><use transform="matrix(0.06172839506172839,0,0,0.06172839506172839,0,0)" xlink:href="#bm"/><use transform="matrix(0.06172839506172839,0,0,0.06172839506172839,7.345679012345679,0)" xlink:href="#ab"/><use transform="matrix(0.06172839506172839,0,0,0.06172839506172839,22.160493827160494,0)" xlink:href="#aU"/><use transform="matrix(0.06172839506172839,0,0,0.06172839506172839,34.50617283950617,0)" xlink:href="#bn"/></g><path fill="#3a414a" d="M30-248c118-7 216 8 213 122C240-48 200 0 122 0H30v-248zM63-27c89 8 146-16 146-99s-60-101-146-95v194" id="bo"/><g id="G"><use transform="matrix(0.06172839506172839,0,0,0.06172839506172839,0,0)" xlink:href="#aS"/><use transform="matrix(0.06172839506172839,0,0,0.06172839506172839,15.987654320987653,0)" xlink:href="#bo"/><use transform="matrix(0.06172839506172839,0,0,0.06172839506172839,31.975308641975307,0)" xlink:href="#ab"/></g><g id="H"><use transform="matrix(0.06172839506172839,0,0,0.06172839506172839,0,0)" xlink:href="#bo"/><use transform="matrix(0.06172839506172839,0,0,0.06172839506172839,15.987654320987653,0)" xlink:href="#aQ"/></g><path fill="#3a414a" d="M135-143c-3-34-86-38-87 0 15 53 115 12 119 90S17 21 10-45l28-5c4 36 97 45 98 0-10-56-113-15-118-90-4-57 82-63 122-42 12 7 21 19 24 35" id="bp"/><g id="I"><use transform="matrix(0.06172839506172839,0,0,0.06172839506172839,0,0)" xlink:href="#Z"/><use transform="matrix(0.06172839506172839,0,0,0.06172839506172839,4.876543209876543,0)" xlink:href="#ac"/><use transform="matrix(0.06172839506172839,0,0,0.06172839506172839,17.22222222222222,0)" xlink:href="#bp"/><use transform="matrix(0.06172839506172839,0,0,0.06172839506172839,28.333333333333332,0)" xlink:href="#ae"/><use transform="matrix(0.06172839506172839,0,0,0.06172839506172839,34.50617283950617,0)" xlink:href="#aA"/><use transform="matrix(0.06172839506172839,0,0,0.06172839506172839,46.85185185185185,0)" xlink:href="#ac"/><use transform="matrix(0.06172839506172839,0,0,0.06172839506172839,59.197530864197525,0)" xlink:href="#aa"/><use transform="matrix(0.06172839506172839,0,0,0.06172839506172839,70.30864197530863,0)" xlink:href="#ad"/></g><g id="J"><use transform="matrix(0.06172839506172839,0,0,0.06172839506172839,0,0)" xlink:href="#Z"/><use transform="matrix(0.06172839506172839,0,0,0.06172839506172839,4.876543209876543,0)" xlink:href="#ac"/><use transform="matrix(0.06172839506172839,0,0,0.06172839506172839,17.22222222222222,0)" xlink:href="#bp"/><use transform="matrix(0.06172839506172839,0,0,0.06172839506172839,28.333333333333332,0)" xlink:href="#ae"/><use transform="matrix(0.06172839506172839,0,0,0.06172839506172839,34.50617283950617,0)" xlink:href="#aA"/><use transform="matrix(0.06172839506172839,0,0,0.06172839506172839,46.85185185185185,0)" xlink:href="#ac"/><use transform="matrix(0.06172839506172839,0,0,0.06172839506172839,59.197530864197525,0)" xlink:href="#aa"/><use transform="matrix(0.06172839506172839,0,0,0.06172839506172839,70.30864197530863,0)" xlink:href="#ad"/></g><g id="K"><use transform="matrix(0.06172839506172839,0,0,0.06172839506172839,0,0)" xlink:href="#bp"/><use transform="matrix(0.06172839506172839,0,0,0.06172839506172839,11.11111111111111,0)" xlink:href="#ae"/><use transform="matrix(0.06172839506172839,0,0,0.06172839506172839,17.28395061728395,0)" xlink:href="#aA"/><use transform="matrix(0.06172839506172839,0,0,0.06172839506172839,29.629629629629626,0)" xlink:href="#ac"/><use transform="matrix(0.06172839506172839,0,0,0.06172839506172839,41.9753086419753,0)" xlink:href="#aP"/><use transform="matrix(0.06172839506172839,0,0,0.06172839506172839,54.32098765432098,0)" xlink:href="#X"/><use transform="matrix(0.06172839506172839,0,0,0.06172839506172839,66.66666666666666,0)" xlink:href="#aL"/></g><path fill="#3a414a" d="M16-82v-28h88v28H16" id="bq"/><path fill="#3a414a" d="M209 0H11v-25l151-195H24v-28h176v25L50-27h159V0" id="br"/><g id="L"><use transform="matrix(0.06172839506172839,0,0,0.06172839506172839,0,0)" xlink:href="#bm"/><use transform="matrix(0.06172839506172839,0,0,0.06172839506172839,7.345679012345679,0)" xlink:href="#aC"/><use transform="matrix(0.06172839506172839,0,0,0.06172839506172839,25.80246913580247,0)" xlink:href="#W"/><use transform="matrix(0.06172839506172839,0,0,0.06172839506172839,38.148148148148145,0)" xlink:href="#Y"/><use transform="matrix(0.06172839506172839,0,0,0.06172839506172839,43.02469135802469,0)" xlink:href="#ae"/><use transform="matrix(0.06172839506172839,0,0,0.06172839506172839,49.19753086419753,0)" xlink:href="#Z"/><use transform="matrix(0.06172839506172839,0,0,0.06172839506172839,54.074074074074076,0)" xlink:href="#bq"/><use transform="matrix(0.06172839506172839,0,0,0.06172839506172839,61.41975308641975,0)" xlink:href="#aB"/><use transform="matrix(0.06172839506172839,0,0,0.06172839506172839,76.23456790123457,0)" xlink:href="#br"/><use transform="matrix(0.06172839506172839,0,0,0.06172839506172839,89.75308641975309,0)" xlink:href="#bn"/></g><g id="M"><use transform="matrix(0.06172839506172839,0,0,0.06172839506172839,0,0)" xlink:href="#aR"/><use transform="matrix(0.06172839506172839,0,0,0.06172839506172839,14.814814814814813,0)" xlink:href="#aG"/><use transform="matrix(0.06172839506172839,0,0,0.06172839506172839,30.80246913580247,0)" xlink:href="#ab"/></g><g id="N"><use transform="matrix(0.06172839506172839,0,0,0.06172839506172839,0,0)" xlink:href="#aa"/><use transform="matrix(0.06172839506172839,0,0,0.06172839506172839,11.11111111111111,0)" xlink:href="#aE"/><use transform="matrix(0.06172839506172839,0,0,0.06172839506172839,23.45679012345679,0)" xlink:href="#ac"/><use transform="matrix(0.06172839506172839,0,0,0.06172839506172839,35.80246913580247,0)" xlink:href="#ae"/><use transform="matrix(0.06172839506172839,0,0,0.06172839506172839,41.97530864197531,0)" xlink:href="#aA"/><use transform="matrix(0.06172839506172839,0,0,0.06172839506172839,54.32098765432099,0)" xlink:href="#Z"/><use transform="matrix(0.06172839506172839,0,0,0.06172839506172839,59.19753086419753,0)" xlink:href="#ac"/><use transform="matrix(0.06172839506172839,0,0,0.06172839506172839,71.54320987654322,0)" xlink:href="#ad"/><use transform="matrix(0.06172839506172839,0,0,0.06172839506172839,83.8888888888889,0)" xlink:href="#ay"/></g><g id="O"><use transform="matrix(0.06172839506172839,0,0,0.06172839506172839,0,0)" xlink:href="#aK"/><use transform="matrix(0.06172839506172839,0,0,0.06172839506172839,15.987654320987653,0)" xlink:href="#ad"/><use transform="matrix(0.06172839506172839,0,0,0.06172839506172839,28.333333333333332,0)" xlink:href="#X"/></g><path d="M106-169C34-169 62-67 57 0H25v-261h32l-1 103c12-21 28-36 61-36 89 0 53 116 60 194h-32v-121c2-32-8-49-39-48" id="bs"/><path d="M177-190C167-65 218 103 67 71c-23-6-38-20-44-43l32-5c15 47 100 32 89-28v-30C133-14 115 1 83 1 29 1 15-40 15-95c0-56 16-97 71-98 29-1 48 16 59 35 1-10 0-23 2-32h30zM94-22c36 0 50-32 50-73 0-42-14-75-50-75-39 0-46 34-46 75s6 73 46 73" id="bt"/><g id="P"><use transform="matrix(0.05,0,0,0.05,0,0)" xlink:href="#bs"/><use transform="matrix(0.05,0,0,0.05,10,0)" xlink:href="#bc"/><use transform="matrix(0.05,0,0,0.05,13.949999999999998,0)" xlink:href="#bt"/><use transform="matrix(0.05,0,0,0.05,23.95,0)" xlink:href="#bs"/></g><path d="M59-47c-2 24 18 29 38 22v24C64 9 27 4 27-40v-127H5v-23h24l9-43h21v43h35v23H59v120" id="bu"/><path d="M179-190L93 31C79 59 56 82 12 73V49c39 6 53-20 64-50L1-190h34L92-34l54-156h33" id="bv"/><g id="Q"><use transform="matrix(0.05,0,0,0.05,0,0)" xlink:href="#bd"/><use transform="matrix(0.05,0,0,0.05,10,0)" xlink:href="#bi"/><use transform="matrix(0.05,0,0,0.05,15.949999999999998,0)" xlink:href="#bc"/><use transform="matrix(0.05,0,0,0.05,19.9,0)" xlink:href="#aZ"/><use transform="matrix(0.05,0,0,0.05,29.899999999999995,0)" xlink:href="#bi"/><use transform="matrix(0.05,0,0,0.05,35.85,0)" xlink:href="#bc"/><use transform="matrix(0.05,0,0,0.05,39.800000000000004,0)" xlink:href="#bu"/><use transform="matrix(0.05,0,0,0.05,44.800000000000004,0)" xlink:href="#bv"/></g><path fill="#3a414a" d="M143 0L79-87 56-68V0H24v-261h32v163l83-92h37l-77 82L181 0h-38" id="bw"/><g id="R"><use transform="matrix(0.06172839506172839,0,0,0.06172839506172839,0,0)" xlink:href="#aK"/><use transform="matrix(0.06172839506172839,0,0,0.06172839506172839,15.987654320987653,0)" xlink:href="#aE"/><use transform="matrix(0.06172839506172839,0,0,0.06172839506172839,28.333333333333332,0)" xlink:href="#ay"/><use transform="matrix(0.06172839506172839,0,0,0.06172839506172839,35.67901234567901,0)" xlink:href="#bw"/><use transform="matrix(0.06172839506172839,0,0,0.06172839506172839,46.79012345679013,0)" xlink:href="#ad"/><use transform="matrix(0.06172839506172839,0,0,0.06172839506172839,59.135802469135804,0)" xlink:href="#ay"/></g><g id="S"><use transform="matrix(0.06172839506172839,0,0,0.06172839506172839,0,0)" xlink:href="#aQ"/><use transform="matrix(0.06172839506172839,0,0,0.06172839506172839,14.814814814814813,0)" xlink:href="#W"/><use transform="matrix(0.06172839506172839,0,0,0.06172839506172839,27.160493827160494,0)" xlink:href="#aa"/><use transform="matrix(0.06172839506172839,0,0,0.06172839506172839,38.27160493827161,0)" xlink:href="#bw"/><use transform="matrix(0.06172839506172839,0,0,0.06172839506172839,49.38271604938272,0)" xlink:href="#ad"/><use transform="matrix(0.06172839506172839,0,0,0.06172839506172839,61.7283950617284,0)" xlink:href="#ae"/></g><path fill="#3a414a" d="M106-169C34-169 62-67 57 0H25v-261h32l-1 103c12-21 28-36 61-36 89 0 53 116 60 194h-32v-121c2-32-8-49-39-48" id="bx"/><g id="T"><use transform="matrix(0.06172839506172839,0,0,0.06172839506172839,0,0)" xlink:href="#aK"/><use transform="matrix(0.06172839506172839,0,0,0.06172839506172839,15.987654320987653,0)" xlink:href="#Z"/><use transform="matrix(0.06172839506172839,0,0,0.06172839506172839,20.864197530864196,0)" xlink:href="#ae"/><use transform="matrix(0.06172839506172839,0,0,0.06172839506172839,27.037037037037035,0)" xlink:href="#bx"/></g><path fill="#3a414a" d="M140-251c81 0 123 46 123 126C263-46 219 4 140 4 59 4 17-45 17-125s42-126 123-126zm0 227c63 0 89-41 89-101s-29-99-89-99c-61 0-89 39-89 99S79-25 140-24" id="by"/><path fill="#3a414a" d="M24-231v-30h32v30H24zM-9 49c24 4 33-6 33-30v-209h32V24c2 40-23 58-65 49V49" id="bz"/><g id="U"><use transform="matrix(0.06172839506172839,0,0,0.06172839506172839,0,0)" xlink:href="#by"/><use transform="matrix(0.06172839506172839,0,0,0.06172839506172839,17.28395061728395,0)" xlink:href="#X"/><use transform="matrix(0.06172839506172839,0,0,0.06172839506172839,29.629629629629626,0)" xlink:href="#bz"/><use transform="matrix(0.06172839506172839,0,0,0.06172839506172839,34.50617283950617,0)" xlink:href="#ad"/><use transform="matrix(0.06172839506172839,0,0,0.06172839506172839,46.85185185185185,0)" xlink:href="#aa"/><use transform="matrix(0.06172839506172839,0,0,0.06172839506172839,57.96296296296296,0)" xlink:href="#ae"/><use transform="matrix(0.06172839506172839,0,0,0.06172839506172839,64.1358024691358,0)" xlink:href="#bp"/></g></defs></g></svg>